<svg version="1.1" id="Layer_1" xmlns="http://www.w3.org/2000/svg" xmlns:xlink="http://www.w3.org/1999/xlink" x="0px" y="0px"
	 width="100%" viewBox="0 0 516 359" enable-background="new 0 0 516 359" xml:space="preserve">
<path fill="#EBE5D8" opacity="1.000000" stroke="none" 
	d="
M1.000000,336.000000 
	C1.000000,259.979095 1.000000,183.958206 1.302044,107.320572 
	C4.976759,102.620766 8.361342,98.547485 11.719891,94.452835 
	C22.236977,81.630699 32.309723,68.419144 47.063320,59.836067 
	C50.859909,57.627357 54.377167,54.474689 57.138126,51.043781 
	C63.368622,43.301445 69.063690,35.126987 74.943237,27.103899 
	C78.960831,21.621580 82.842468,16.037836 86.938591,10.615549 
	C89.382271,7.380714 92.304855,7.243977 95.585861,9.713413 
	C102.503075,14.919638 105.092430,22.607014 107.924683,30.263483 
	C110.384117,36.912094 113.255653,43.408257 115.972603,50.290123 
	C116.295517,51.345879 116.590897,52.083305 116.954597,53.191887 
	C118.050491,55.993961 118.929428,58.501251 120.132286,60.842102 
	C124.495872,69.334045 128.968063,77.770172 133.420059,86.551178 
	C140.183731,99.854294 147.392548,112.536407 158.069885,122.789612 
	C161.125259,125.723625 165.192871,127.726471 167.831604,130.946793 
	C173.999298,138.473892 177.939072,147.244293 180.183975,156.758621 
	C181.077377,160.545074 182.224258,164.271744 183.420074,168.623657 
	C191.157379,163.484207 198.602966,159.080414 205.419022,153.855392 
	C211.961288,148.840271 219.086594,145.816589 227.517960,144.567886 
	C235.084671,144.640778 242.240280,144.712082 249.827927,144.837921 
	C260.148529,146.944565 269.417358,150.278732 277.002747,157.334747 
	C284.166565,163.998550 291.318726,170.683640 298.695648,177.107132 
	C305.936523,183.412201 313.217712,189.725845 320.980011,195.346939 
	C323.639282,197.272644 327.814392,197.771988 331.284088,197.734436 
	C335.183472,197.692215 339.070221,196.315094 342.959167,195.502884 
	C354.943573,192.999878 366.926392,190.489319 379.004150,188.427429 
	C379.126282,191.603043 379.154083,194.332932 379.111816,197.518677 
	C379.042206,202.309280 379.042633,206.644058 378.941864,211.314178 
	C378.909607,212.106323 378.978516,212.563126 378.965515,213.424805 
	C378.658813,219.538757 378.433990,225.247818 378.122864,231.353424 
	C378.085022,232.827713 378.133484,233.905457 377.983551,235.324554 
	C375.511627,241.277191 380.543823,238.002548 381.993378,239.562439 
	C380.383270,261.027496 378.753418,282.039612 377.065979,303.491028 
	C376.721344,308.615967 376.434265,313.301636 376.103516,318.444275 
	C375.994965,322.546509 375.930115,326.191772 375.601562,330.050110 
	C374.619537,332.155182 373.901215,334.047180 372.702942,335.951935 
	C289.214966,335.972778 206.206940,335.973633 123.198944,336.031067 
	C121.132141,336.032501 119.065773,336.659515 116.613953,336.832703 
	C114.435951,336.442902 112.643372,336.018127 110.850403,336.016449 
	C74.233627,335.981964 37.616810,335.995819 1.000000,336.000000 
z"/>
<path fill="#FCF9F7" opacity="1.000000" stroke="none" 
	d="
M116.999207,336.994781 
	C119.065773,336.659515 121.132141,336.032501 123.198944,336.031067 
	C206.206940,335.973633 289.214966,335.972778 372.741821,336.376373 
	C373.842010,337.242432 374.418152,338.084015 375.005524,338.091949 
	C381.809875,338.183899 388.619049,338.254486 395.418640,338.052155 
	C396.634033,338.015991 397.811707,336.711975 399.472839,335.990845 
	C404.934998,335.996429 409.931122,336.004578 415.056274,336.403381 
	C423.115570,337.069275 431.045013,337.381256 438.977570,337.544067 
	C439.557281,337.555969 440.159149,336.488251 441.234711,335.939270 
	C465.273590,335.956055 488.828430,335.956055 513.679260,335.956055 
	C511.835602,333.294403 511.008606,331.454803 509.634308,330.228699 
	C503.819641,325.041016 498.096924,319.695526 491.871399,315.034393 
	C478.677399,305.155731 465.866089,295.149384 456.748993,280.912018 
	C449.440857,269.499573 445.340454,256.988464 441.210571,244.350571 
	C439.472412,239.031525 436.550385,234.469986 431.108765,231.518494 
	C428.868896,210.767044 426.731323,190.458054 424.665649,169.700378 
	C423.925995,154.934387 423.114441,140.617035 422.482849,125.922974 
	C423.213562,123.413635 423.764343,121.281029 424.522186,118.824448 
	C424.333527,114.876251 423.937805,111.252045 423.832031,107.376694 
	C430.734039,102.218765 437.211243,97.113503 444.015869,92.490181 
	C447.343292,90.229385 447.553040,88.205078 445.467224,85.168915 
	C453.542297,77.663666 461.354614,70.359985 469.610657,63.044533 
	C478.836670,61.694016 487.638367,60.463409 496.380157,58.898289 
	C497.670746,58.667225 499.479553,56.926949 499.588379,55.749912 
	C499.695099,54.595924 498.198242,52.655178 496.953369,52.129246 
	C492.439423,50.222168 487.735687,48.764275 483.481323,47.009605 
	C486.141449,46.433823 488.537933,46.273079 490.663849,45.429989 
	C491.958862,44.916405 493.840332,43.231777 493.726868,42.279373 
	C493.259003,38.350002 492.129303,34.499439 490.938751,29.288912 
	C486.133575,32.793755 482.395477,34.977436 479.345795,37.883511 
	C475.617004,41.436752 472.465424,45.595718 468.892639,49.184422 
	C463.042847,50.332470 457.286194,51.541897 451.708435,53.314323 
	C446.067078,55.106945 440.819611,55.760067 435.708221,51.889931 
	C427.106415,45.376984 417.289398,43.199814 406.425415,43.963303 
	C402.413940,39.134037 398.040955,40.232738 393.220154,42.244240 
	C391.481293,41.721466 390.079102,41.338501 388.393372,40.783943 
	C386.128967,41.329460 383.550568,41.501743 382.294312,42.879520 
	C379.838776,45.572586 378.121674,48.938923 375.755920,51.881325 
	C372.438934,50.938168 369.292236,49.077953 366.520996,49.528214 
	C355.190216,51.369194 343.974091,53.915707 332.432434,56.033989 
	C327.663483,51.692589 321.588715,48.286526 319.107941,43.146008 
	C316.224091,37.170364 311.218262,35.828480 305.959656,31.827881 
	C304.818848,36.559685 303.614166,40.292431 303.188843,44.111954 
	C303.065643,45.218479 305.182190,47.647484 306.263794,47.642662 
	C313.852905,47.608849 317.529205,52.979588 321.078796,57.980583 
	C311.629395,59.390743 302.655914,60.799343 293.682434,62.207939 
	C293.745209,62.827824 293.808014,63.447708 293.870789,64.067589 
	C304.938385,65.926468 316.134064,64.766693 327.555603,64.994362 
	C334.858826,73.362045 341.834839,81.602509 351.358215,87.390961 
	C348.844849,90.886368 350.971191,92.933640 352.726837,95.261482 
	C348.145416,96.705605 343.772980,97.707039 339.544830,99.135597 
	C335.882812,100.372879 332.953308,99.722008 329.751831,97.576561 
	C318.315338,89.912468 306.620331,89.901756 294.525360,96.479614 
	C291.775360,97.975212 287.425995,98.997978 284.877258,97.858147 
	C280.235565,95.782288 276.025513,95.822456 271.366089,96.693588 
	C266.334595,97.634293 261.238861,98.231636 256.090485,98.599701 
	C250.045410,77.138695 237.429153,62.296585 216.991104,53.342930 
	C204.058044,47.677120 191.305756,46.956665 178.124054,49.855408 
	C157.256607,54.444302 142.976654,67.545357 133.399277,86.227356 
	C128.968063,77.770172 124.495872,69.334045 120.132286,60.842102 
	C118.929428,58.501251 118.050491,55.993961 116.987617,52.742966 
	C116.968208,34.948589 116.984108,17.974295 117.000000,1.000000 
	C250.282974,1.000000 383.565948,1.000000 516.924438,1.000000 
	C516.924438,120.571075 516.924438,240.142212 516.924438,360.000000 
	C383.979248,360.000000 250.958282,360.000000 117.468765,359.531372 
	C116.999878,351.706757 116.999542,344.350769 116.999207,336.994781 
z"/>
<path fill="#F9FBFD" opacity="1.000000" stroke="none" 
	d="
M115.945068,49.971794 
	C113.255653,43.408257 110.384117,36.912094 107.924683,30.263483 
	C105.092430,22.607014 102.503075,14.919638 95.585861,9.713413 
	C92.304855,7.243977 89.382271,7.380714 86.938591,10.615549 
	C82.842468,16.037836 78.960831,21.621580 74.943237,27.103899 
	C69.063690,35.126987 63.368622,43.301445 57.138126,51.043781 
	C54.377167,54.474689 50.859909,57.627357 47.063320,59.836067 
	C32.309723,68.419144 22.236977,81.630699 11.719891,94.452835 
	C8.361342,98.547485 4.976759,102.620766 1.302044,106.851913 
	C1.000000,71.736740 1.000000,36.473476 1.000000,1.000000 
	C39.020638,1.000000 77.041656,1.000000 115.531898,1.468657 
	C115.982430,17.948807 115.963745,33.960300 115.945068,49.971794 
z"/>
<path fill="#F9FBFD" opacity="1.000000" stroke="none" 
	d="
M116.613953,336.832703 
	C116.999542,344.350769 116.999878,351.706757 117.000107,359.531372 
	C78.454559,360.000000 39.909122,360.000000 1.000000,360.000000 
	C1.000000,352.316284 1.000000,344.626831 1.000000,336.468689 
	C37.616810,335.995819 74.233627,335.981964 110.850403,336.016449 
	C112.643372,336.018127 114.435951,336.442902 116.613953,336.832703 
z"/>
<path fill="#BFC3C0" opacity="1.000000" stroke="none" 
	d="
M115.972603,50.290123 
	C115.963745,33.960300 115.982430,17.948807 116.000557,1.468657 
	C116.000000,1.000000 116.500000,1.000000 116.750000,1.000000 
	C116.984108,17.974295 116.968208,34.948589 116.919296,52.371811 
	C116.590897,52.083305 116.295517,51.345879 115.972603,50.290123 
z"/>
<path fill="#F07E53" opacity="1.000000" stroke="none" 
	d="
M133.420059,86.551178 
	C142.976654,67.545357 157.256607,54.444302 178.124054,49.855408 
	C191.305756,46.956665 204.058044,47.677120 216.991104,53.342930 
	C237.429153,62.296585 250.045410,77.138695 255.860931,98.928612 
	C248.372849,100.846275 241.028503,102.026054 233.696350,103.277115 
	C229.436401,104.003983 225.195984,104.845284 220.946793,105.635094 
	C221.021011,106.020187 221.095230,106.405281 221.169449,106.790375 
	C222.118835,107.033638 223.068237,107.276909 224.257416,107.883743 
	C226.264389,108.495544 228.029312,108.937378 229.799164,108.958199 
	C237.099701,109.044052 244.404343,109.118401 251.701996,108.953621 
	C254.896484,108.881485 256.188843,109.912712 256.080994,113.215927 
	C255.997269,115.779984 256.585052,118.365967 256.921997,121.354294 
	C254.789398,128.529266 252.609116,135.292160 249.997223,142.166702 
	C243.653519,142.516266 237.734940,142.658142 231.833542,143.055283 
	C230.231339,143.163101 228.680984,144.041534 227.106842,144.566284 
	C219.086594,145.816589 211.961288,148.840271 205.419022,153.855392 
	C198.602966,159.080414 191.157379,163.484207 183.420074,168.623657 
	C182.224258,164.271744 181.077377,160.545074 180.183975,156.758621 
	C177.939072,147.244293 173.999298,138.473892 167.831604,130.946793 
	C165.192871,127.726471 161.125259,125.723625 158.069885,122.789612 
	C147.392548,112.536407 140.183731,99.854294 133.420059,86.551178 
z"/>
<path fill="#FCF9F7" opacity="1.000000" stroke="none" 
	d="
M250.428833,142.055038 
	C252.609116,135.292160 254.789398,128.529266 257.010162,120.961243 
	C257.095215,116.095703 257.139771,112.035301 257.641235,107.988457 
	C288.806549,107.663681 319.516541,107.419708 350.221832,106.898224 
	C355.614624,106.806625 360.987701,105.551758 366.657166,104.914581 
	C367.906036,105.667145 368.867615,106.339241 369.918457,107.402237 
	C369.404938,109.109146 369.140991,110.817055 368.144989,111.678314 
	C361.071167,117.795074 353.451355,123.336800 346.813843,129.881516 
	C342.539459,134.096146 339.637665,139.702866 336.120667,144.685669 
	C336.541687,145.079407 336.962708,145.473160 337.383728,145.866913 
	C341.601440,144.749527 345.762421,143.280182 350.048889,142.589584 
	C358.420715,141.240738 366.818329,140.696503 374.480530,145.969513 
	C373.835815,155.316315 373.239990,164.146530 372.614929,173.410370 
	C375.025940,173.273239 376.950043,173.163803 378.897583,173.516647 
	C378.917297,178.646515 378.913574,183.314102 378.909851,187.981689 
	C366.926392,190.489319 354.943573,192.999878 342.959167,195.502884 
	C339.070221,196.315094 335.183472,197.692215 331.284088,197.734436 
	C327.814392,197.771988 323.639282,197.272644 320.980011,195.346939 
	C313.217712,189.725845 305.936523,183.412201 298.695648,177.107132 
	C291.318726,170.683640 284.166565,163.998550 277.002747,157.334747 
	C269.417358,150.278732 260.148529,146.944565 249.949402,144.494110 
	C249.902161,143.415497 250.165497,142.735275 250.428833,142.055038 
z"/>
<path fill="#50443F" opacity="1.000000" stroke="none" 
	d="
M379.004150,188.427414 
	C378.913574,183.314102 378.917297,178.646515 379.357849,173.447906 
	C394.727722,171.994278 409.660706,171.071655 424.593719,170.149048 
	C426.731323,190.458054 428.868896,210.767044 431.044708,231.911316 
	C431.096313,233.541748 431.109741,234.336914 430.765869,235.341461 
	C423.817017,235.545242 417.225433,235.539642 410.620300,235.109543 
	C409.362030,226.735306 408.240082,218.763046 406.787567,210.851471 
	C406.418427,208.840500 404.998749,207.022369 404.041809,204.727173 
	C403.454498,202.851364 403.307831,200.882614 402.249146,199.957382 
	C396.720947,195.125992 393.223145,189.159470 391.439880,180.918121 
	C389.330719,189.915085 388.315399,197.984268 393.628845,204.546494 
	C398.038666,209.992722 399.223480,215.942886 400.074890,222.376999 
	C400.241302,223.634415 401.514343,224.745407 402.361542,226.320755 
	C402.153259,230.096786 401.860443,233.476013 401.284363,236.576248 
	C397.569244,236.196854 394.132446,236.178909 390.706757,235.974884 
	C386.526978,235.725983 382.356476,235.320786 378.181976,234.983185 
	C378.133484,233.905457 378.085022,232.827713 378.483215,231.220047 
	C378.969055,224.800049 379.008240,218.909988 379.047424,213.019928 
	C378.978516,212.563126 378.909607,212.106323 379.209717,211.004456 
	C379.446472,205.927200 379.314178,201.495010 379.181885,197.062836 
	C379.154083,194.332932 379.126282,191.603043 379.004150,188.427414 
z"/>
<path fill="#E4897B" opacity="1.000000" stroke="none" 
	d="
M375.865234,329.837006 
	C375.930115,326.191772 375.994965,322.546509 376.473083,318.321838 
	C376.965393,312.845520 377.044464,307.948608 377.123535,303.051727 
	C378.753418,282.039612 380.383270,261.027496 382.460205,239.530975 
	C387.965637,239.076141 393.024078,239.105698 398.055389,239.565643 
	C397.509552,245.268082 397.304504,250.593506 396.418518,255.803085 
	C392.256653,280.274109 387.907745,304.713287 383.331116,329.333069 
	C380.646149,329.613831 378.255676,329.725403 375.865234,329.837006 
z"/>
<path fill="#63B389" opacity="1.000000" stroke="none" 
	d="
M375.601562,330.050110 
	C378.255676,329.725403 380.646149,329.613831 383.673218,329.482147 
	C389.208832,331.639160 394.107819,333.816284 399.006805,335.993408 
	C397.811707,336.711975 396.634033,338.015991 395.418640,338.052155 
	C388.619049,338.254486 381.809875,338.183899 375.005524,338.091949 
	C374.418152,338.084015 373.842010,337.242432 373.221741,336.363617 
	C373.901215,334.047180 374.619537,332.155182 375.601562,330.050110 
z"/>
<path fill="#FEBA4B" opacity="1.000000" stroke="none" 
	d="
M398.082489,239.135239 
	C393.024078,239.105698 387.965637,239.076141 382.440430,239.078049 
	C380.543823,238.002548 375.511627,241.277191 377.983551,235.324539 
	C382.356476,235.320786 386.526978,235.725983 390.706757,235.974884 
	C394.132446,236.178909 397.569244,236.196854 401.331604,236.912872 
	C400.468872,238.064056 399.275696,238.599640 398.082489,239.135239 
z"/>
<path fill="#312421" opacity="1.000000" stroke="none" 
	d="
M378.965515,213.424805 
	C379.008240,218.909988 378.969055,224.800049 378.569519,230.823486 
	C378.433990,225.247818 378.658813,219.538757 378.965515,213.424805 
z"/>
<path fill="#F0692A" opacity="1.000000" stroke="none" 
	d="
M249.997238,142.166702 
	C250.165497,142.735275 249.902161,143.415497 249.517349,144.439545 
	C242.240280,144.712082 235.084671,144.640778 227.517960,144.567886 
	C228.680984,144.041534 230.231339,143.163101 231.833542,143.055283 
	C237.734940,142.658142 243.653519,142.516266 249.997238,142.166702 
z"/>
<path fill="#E48778" opacity="1.000000" stroke="none" 
	d="
M377.065979,303.491028 
	C377.044464,307.948608 376.965393,312.845520 376.516754,317.864868 
	C376.434265,313.301636 376.721344,308.615967 377.065979,303.491028 
z"/>
<path fill="#312421" opacity="1.000000" stroke="none" 
	d="
M379.111816,197.518677 
	C379.314178,201.495010 379.446472,205.927200 379.310913,210.669098 
	C379.042633,206.644058 379.042206,202.309280 379.111816,197.518677 
z"/>
<path fill="#FEBA4B" opacity="1.000000" stroke="none" 
	d="
M374.529419,145.452911 
	C366.818329,140.696503 358.420715,141.240738 350.048889,142.589584 
	C345.762421,143.280182 341.601440,144.749527 337.383728,145.866913 
	C336.962708,145.473160 336.541687,145.079407 336.120667,144.685669 
	C339.637665,139.702866 342.539459,134.096146 346.813843,129.881516 
	C353.451355,123.336800 361.071167,117.795074 368.144989,111.678314 
	C369.140991,110.817055 369.404938,109.109146 369.959991,106.982681 
	C369.440582,102.473373 368.968933,98.774498 368.323151,93.710335 
	C365.776123,96.776772 363.972565,98.948097 361.848053,100.981552 
	C358.684235,98.897202 355.841339,96.950722 352.998474,95.004250 
	C350.971191,92.933640 348.844849,90.886368 351.592102,87.175018 
	C353.873962,83.032135 355.855743,79.475784 358.091461,75.653503 
	C361.126892,76.426765 363.896790,77.498581 366.692413,78.498329 
	C372.442902,80.554794 378.207214,82.572716 384.395325,84.714256 
	C391.201050,84.817207 397.577240,84.812401 404.389191,84.884430 
	C411.664886,84.861496 418.178986,83.703575 424.056793,79.824883 
	C427.210236,77.744003 430.570282,75.929672 433.990662,74.321663 
	C435.462433,73.629753 437.323761,73.766541 439.089661,73.843323 
	C441.182312,77.896721 443.193359,81.633606 445.204407,85.370483 
	C447.553040,88.205078 447.343292,90.229385 444.015869,92.490181 
	C437.211243,97.113503 430.734039,102.218765 423.596252,107.095383 
	C421.885498,105.328056 420.700531,103.590897 419.515564,101.853745 
	C419.408203,108.299362 419.841095,114.353737 424.315125,119.148422 
	C423.764343,121.281029 423.213562,123.413635 422.390747,126.186142 
	C419.407654,130.828598 416.696594,134.831146 413.729736,138.943207 
	C413.293915,139.365204 413.113861,139.677658 412.965973,139.992493 
	C412.998169,139.994888 412.983978,139.931915 412.723663,140.008148 
	C412.283997,140.384048 412.104614,140.683716 411.958710,140.987778 
	C411.992157,140.992172 411.983612,140.925262 411.720886,140.998856 
	C411.280518,141.376251 411.102905,141.680069 410.959106,141.983704 
	C410.992950,141.983521 410.959686,141.924576 410.647827,142.045227 
	C408.198822,144.430496 406.061646,146.695114 403.954010,148.976303 
	C403.983551,148.992859 403.983490,148.925110 403.720703,148.998627 
	C403.280334,149.376022 403.102753,149.679932 402.958710,149.987976 
	C402.992218,149.992111 402.983521,149.925140 402.720734,149.998657 
	C402.280365,150.376083 402.102783,150.679962 401.958618,150.988800 
	C401.992035,150.993744 401.986755,150.926422 401.720337,151.001663 
	C401.267761,151.383881 401.081573,151.690857 400.590576,152.152313 
	C398.181671,154.480453 396.298187,155.413055 393.006714,153.656967 
	C387.076630,150.493042 380.712341,148.142944 374.529419,145.452911 
z"/>
<path fill="#EBE5D8" opacity="1.000000" stroke="none" 
	d="
M431.123138,235.132095 
	C431.109741,234.336914 431.096313,233.541748 431.146973,232.353745 
	C436.550385,234.469986 439.472412,239.031525 441.210571,244.350571 
	C445.340454,256.988464 449.440857,269.499573 456.748993,280.912018 
	C465.866089,295.149384 478.677399,305.155731 491.871399,315.034393 
	C498.096924,319.695526 503.819641,325.041016 509.634308,330.228699 
	C511.008606,331.454803 511.835602,333.294403 513.679260,335.956055 
	C488.828430,335.956055 465.273590,335.956055 441.069031,335.638367 
	C435.715332,333.505981 431.011261,331.691284 426.279663,329.461731 
	C427.125366,307.020264 427.998596,284.993622 428.913666,262.732483 
	C428.955536,262.497925 428.912567,262.023376 428.952423,261.683380 
	C428.976837,260.887634 428.961426,260.431915 428.998413,259.549133 
	C429.295898,252.450943 429.540985,245.779785 430.099915,239.007935 
	C431.174561,237.747406 434.209412,237.014877 431.123138,235.132095 
z"/>
<path fill="#EBE5D8" opacity="1.000000" stroke="none" 
	d="
M398.055389,239.565643 
	C399.275696,238.599640 400.468872,238.064056 401.614868,237.191833 
	C401.860443,233.476013 402.153259,230.096786 402.555725,225.905685 
	C403.130829,218.434418 403.596283,211.775024 404.061737,205.115646 
	C404.998749,207.022369 406.418427,208.840500 406.787567,210.851471 
	C408.240082,218.763046 409.362030,226.735306 410.412842,235.479370 
	C411.192383,237.201004 412.165771,238.128265 413.198486,239.382141 
	C413.544952,240.788895 413.832092,241.869003 414.097290,243.280731 
	C414.343231,244.417542 414.611053,245.222733 414.892822,246.493576 
	C414.977112,252.933838 415.047455,258.908478 415.065186,265.325531 
	C415.060638,267.546539 415.108704,269.325134 415.139130,271.297821 
	C415.121460,271.491943 415.194031,271.875000 415.135559,272.346802 
	C415.078949,275.145203 414.980438,277.476959 415.098785,279.797607 
	C415.943420,296.359497 416.832367,312.919128 417.410858,329.688843 
	C416.385406,331.936401 415.656311,333.974548 414.927216,336.012695 
	C409.931122,336.004578 404.934998,335.996429 399.472839,335.990845 
	C394.107819,333.816284 389.208832,331.639160 383.967712,329.312927 
	C387.907745,304.713287 392.256653,280.274109 396.418518,255.803085 
	C397.304504,250.593506 397.509552,245.268082 398.055389,239.565643 
z"/>
<path fill="#EBE4D7" opacity="1.000000" stroke="none" 
	d="
M352.726837,95.261482 
	C355.841339,96.950722 358.684235,98.897202 362.008423,101.243507 
	C363.783142,102.706932 365.076508,103.770531 366.369873,104.834122 
	C360.987701,105.551758 355.614624,106.806625 350.221832,106.898224 
	C319.516541,107.419708 288.806549,107.663681 257.162018,107.938019 
	C245.489807,107.756073 234.753708,107.638123 224.017624,107.520180 
	C223.068237,107.276909 222.118835,107.033638 221.169449,106.790375 
	C221.095230,106.405281 221.021011,106.020187 220.946793,105.635094 
	C225.195984,104.845284 229.436401,104.003983 233.696350,103.277115 
	C241.028503,102.026054 248.372849,100.846275 255.941620,99.307663 
	C261.238861,98.231636 266.334595,97.634293 271.366089,96.693588 
	C276.025513,95.822456 280.235565,95.782288 284.877258,97.858147 
	C287.425995,98.997978 291.775360,97.975212 294.525360,96.479614 
	C306.620331,89.901756 318.315338,89.912468 329.751831,97.576561 
	C332.953308,99.722008 335.882812,100.372879 339.544830,99.135597 
	C343.772980,97.707039 348.145416,96.705605 352.726837,95.261482 
z"/>
<path fill="#63B389" opacity="1.000000" stroke="none" 
	d="
M413.985535,138.833694 
	C416.696594,134.831146 419.407654,130.828598 422.210785,126.562866 
	C423.114441,140.617035 423.925995,154.934387 424.665649,169.700378 
	C409.660706,171.071655 394.727722,171.994278 379.334442,172.985626 
	C376.950043,173.163803 375.025940,173.273239 372.614929,173.410370 
	C373.239990,164.146530 373.835815,155.316315 374.480530,145.969513 
	C380.712341,148.142944 387.076630,150.493042 393.006714,153.656967 
	C396.298187,155.413055 398.181671,154.480453 400.853271,152.062592 
	C401.609375,151.521072 401.798065,151.223755 401.986755,150.926422 
	C401.986755,150.926422 401.992035,150.993744 402.231720,150.929977 
	C402.642120,150.552521 402.812805,150.238831 402.983521,149.925140 
	C402.983521,149.925140 402.992218,149.992111 403.231812,149.929184 
	C403.642120,149.552536 403.812805,149.238831 403.983490,148.925110 
	C403.983490,148.925110 403.983551,148.992859 404.308136,149.011139 
	C406.741699,146.661133 408.850708,144.292847 410.959686,141.924576 
	C410.959686,141.924576 410.992950,141.983521 411.232178,141.924866 
	C411.642151,141.552567 411.812866,141.238922 411.983612,140.925262 
	C411.983612,140.925262 411.992157,140.992172 412.231873,140.930969 
	C412.642395,140.557144 412.813202,140.244522 412.983978,139.931915 
	C412.983978,139.931915 412.998169,139.994888 413.236145,139.910339 
	C413.644623,139.495087 413.815063,139.164398 413.985535,138.833694 
z"/>
<path fill="#EBE5D8" opacity="1.000000" stroke="none" 
	d="
M406.663391,44.209728 
	C417.289398,43.199814 427.106415,45.376984 435.708221,51.889931 
	C440.819611,55.760067 446.067078,55.106945 451.708435,53.314323 
	C457.286194,51.541897 463.042847,50.332470 468.723938,49.431541 
	C463.573730,54.677280 458.420654,59.367554 452.817444,64.051514 
	C447.916199,64.362717 443.468018,64.892723 439.013306,64.954926 
	C428.713074,65.098732 418.409698,65.015930 408.043884,64.619110 
	C407.307007,61.410645 406.633881,58.608082 405.987915,55.440155 
	C408.014343,51.559505 407.276062,47.880867 406.663391,44.209728 
z"/>
<path fill="#E48879" opacity="1.000000" stroke="none" 
	d="
M357.837555,75.919426 
	C355.855743,79.475784 353.873962,83.032135 351.658264,86.804436 
	C341.834839,81.602509 334.858826,73.362045 327.367249,64.720306 
	C325.119507,62.169540 323.337128,60.074280 321.554749,57.979023 
	C317.529205,52.979588 313.852905,47.608849 306.263794,47.642662 
	C305.182190,47.647484 303.065643,45.218479 303.188843,44.111954 
	C303.614166,40.292431 304.818848,36.559685 305.959656,31.827881 
	C311.218262,35.828480 316.224091,37.170364 319.107941,43.146008 
	C321.588715,48.286526 327.663483,51.692589 332.625122,56.309074 
	C336.082672,59.499992 339.064178,62.247398 342.186157,65.296715 
	C347.496918,69.038895 352.667236,72.479156 357.837555,75.919426 
z"/>
<path fill="#E48778" opacity="1.000000" stroke="none" 
	d="
M453.267578,64.057831 
	C458.420654,59.367554 463.573730,54.677280 468.895538,49.739883 
	C472.465424,45.595718 475.617004,41.436752 479.345795,37.883511 
	C482.395477,34.977436 486.133575,32.793755 490.938751,29.288912 
	C492.129303,34.499439 493.259003,38.350002 493.726868,42.279373 
	C493.840332,43.231777 491.958862,44.916405 490.663849,45.429989 
	C488.537933,46.273079 486.141449,46.433823 483.172638,47.133461 
	C478.046478,52.608521 473.606689,57.832417 469.166931,63.056313 
	C461.354614,70.359985 453.542297,77.663666 445.467194,85.168915 
	C443.193359,81.633606 441.182312,77.896721 439.450256,73.743713 
	C444.242035,70.237679 448.754822,67.147758 453.267578,64.057831 
z"/>
<path fill="#EBE5D8" opacity="1.000000" stroke="none" 
	d="
M342.045715,64.994804 
	C339.064178,62.247398 336.082672,59.499992 332.908447,56.477501 
	C343.974091,53.915707 355.190216,51.369194 366.520996,49.528214 
	C369.292236,49.077953 372.438934,50.938168 375.735779,52.111736 
	C376.058594,52.487366 376.156372,52.939140 376.140228,53.289246 
	C376.516205,54.904449 376.908295,56.169548 377.059753,57.736023 
	C375.825806,60.367634 374.832489,62.697876 373.382202,65.018494 
	C362.632080,65.004189 352.338898,64.999496 342.045715,64.994804 
z"/>
<path fill="#FAB94A" opacity="1.000000" stroke="none" 
	d="
M373.839172,65.028122 
	C374.832489,62.697876 375.825806,60.367634 377.307343,57.976372 
	C378.412781,59.060986 379.029999,60.206623 379.845123,61.650227 
	C385.463867,64.740990 388.944489,63.814159 395.347717,57.783909 
	C398.350586,54.064590 402.008453,50.741703 398.293579,45.454422 
	C396.559021,44.273190 395.057953,43.328617 393.556885,42.384048 
	C398.040955,40.232738 402.413940,39.134037 406.425415,43.963303 
	C407.276062,47.880867 408.014343,51.559505 405.720581,55.666557 
	C402.929047,59.075405 400.432007,61.892483 397.588684,64.790977 
	C393.044617,67.155045 388.846863,69.437698 384.227234,71.753250 
	C375.038483,72.426926 374.153381,71.826759 373.839172,65.028122 
z"/>
<path fill="#EBE5D8" opacity="1.000000" stroke="none" 
	d="
M469.610657,63.044537 
	C473.606689,57.832417 478.046478,52.608521 482.794922,47.260765 
	C487.735687,48.764275 492.439423,50.222168 496.953369,52.129246 
	C498.198242,52.655178 499.695099,54.595924 499.588379,55.749912 
	C499.479553,56.926949 497.670746,58.667225 496.380157,58.898289 
	C487.638367,60.463409 478.836670,61.694016 469.610657,63.044537 
z"/>
<path fill="#0A0804" opacity="1.000000" stroke="none" 
	d="
M379.647247,61.352257 
	C379.029999,60.206623 378.412781,59.060986 377.547974,57.674999 
	C376.908295,56.169548 376.516205,54.904449 376.543640,53.291454 
	C382.659485,55.504349 386.587219,54.440666 388.480835,49.092697 
	C389.341522,46.661926 388.659302,43.684818 388.676941,40.955536 
	C390.079102,41.338501 391.481293,41.721466 393.220154,42.244240 
	C395.057953,43.328617 396.559021,44.273190 398.124146,45.862625 
	C396.762299,49.991428 395.336426,53.475365 393.602509,57.131344 
	C389.433960,60.973961 384.651978,61.538433 379.647247,61.352257 
z"/>
<path fill="#63B389" opacity="1.000000" stroke="none" 
	d="
M415.056274,336.403351 
	C415.656311,333.974548 416.385406,331.936401 417.857422,329.901825 
	C421.169281,329.895782 423.738251,329.886200 426.307220,329.876587 
	C431.011261,331.691284 435.715332,333.505981 440.585022,335.621582 
	C440.159149,336.488251 439.557281,337.555969 438.977570,337.544067 
	C431.045013,337.381256 423.115570,337.069275 415.056274,336.403351 
z"/>
<path fill="#EBE5D8" opacity="1.000000" stroke="none" 
	d="
M321.078796,57.980583 
	C323.337128,60.074280 325.119507,62.169540 327.090240,64.538864 
	C316.134064,64.766693 304.938385,65.926468 293.870789,64.067589 
	C293.808014,63.447708 293.745209,62.827824 293.682434,62.207939 
	C302.655914,60.799343 311.629395,59.390743 321.078796,57.980583 
z"/>
<path fill="#FAB94A" opacity="1.000000" stroke="none" 
	d="
M388.393372,40.783943 
	C388.659302,43.684818 389.341522,46.661926 388.480835,49.092697 
	C386.587219,54.440666 382.659485,55.504349 376.559753,52.941353 
	C376.156372,52.939140 376.058594,52.487366 376.078735,52.256950 
	C378.121674,48.938923 379.838776,45.572586 382.294312,42.879520 
	C383.550568,41.501743 386.128967,41.329460 388.393372,40.783943 
z"/>
<path fill="#1E170C" opacity="1.000000" stroke="none" 
	d="
M424.522186,118.824448 
	C419.841095,114.353737 419.408203,108.299362 419.515564,101.853745 
	C420.700531,103.590897 421.885498,105.328056 423.306274,107.346519 
	C423.937805,111.252045 424.333527,114.876251 424.522186,118.824448 
z"/>
<path fill="#F0692A" opacity="1.000000" stroke="none" 
	d="
M224.257416,107.883743 
	C234.753708,107.638123 245.489807,107.756073 256.705109,107.924469 
	C257.139771,112.035301 257.095215,116.095703 256.962524,120.549149 
	C256.585052,118.365967 255.997269,115.779984 256.080994,113.215927 
	C256.188843,109.912712 254.896484,108.881485 251.701996,108.953621 
	C244.404343,109.118401 237.099701,109.044052 229.799164,108.958199 
	C228.029312,108.937378 226.264389,108.495544 224.257416,107.883743 
z"/>
<path fill="#0A0804" opacity="1.000000" stroke="none" 
	d="
M366.657166,104.914589 
	C365.076508,103.770531 363.783142,102.706932 362.329407,101.381378 
	C363.972565,98.948097 365.776123,96.776772 368.323151,93.710335 
	C368.968933,98.774498 369.440582,102.473373 369.870728,106.591789 
	C368.867615,106.339241 367.906036,105.667145 366.657166,104.914589 
z"/>
<path fill="#312421" opacity="1.000000" stroke="none" 
	d="
M404.041809,204.727173 
	C403.596283,211.775024 403.130829,218.434418 402.471191,225.508865 
	C401.514343,224.745407 400.241302,223.634415 400.074890,222.376999 
	C399.223480,215.942886 398.038666,209.992722 393.628845,204.546494 
	C388.315399,197.984268 389.330719,189.915085 391.439880,180.918121 
	C393.223145,189.159470 396.720947,195.125992 402.249146,199.957382 
	C403.307831,200.882614 403.454498,202.851364 404.041809,204.727173 
z"/>
<path fill="#FAB94A" opacity="1.000000" stroke="none" 
	d="
M413.139160,239.055527 
	C412.165771,238.128265 411.192383,237.201004 410.426422,235.903900 
	C417.225433,235.539642 423.817017,235.545242 430.765869,235.341461 
	C434.209412,237.014877 431.174561,237.747406 429.658203,238.965973 
	C423.648193,239.034958 418.393677,239.045242 413.139160,239.055527 
z"/>
<path fill="#FCF8F5" opacity="1.000000" stroke="none" 
	d="
M452.817444,64.051514 
	C448.754822,67.147758 444.242035,70.237679 439.368713,73.427208 
	C437.323761,73.766541 435.462433,73.629753 433.990662,74.321663 
	C430.570282,75.929672 427.210236,77.744003 424.056793,79.824883 
	C418.178986,83.703575 411.664886,84.861496 404.209229,84.623413 
	C402.081207,83.422424 400.568909,82.559280 399.073669,81.356773 
	C405.620270,77.673508 408.106140,72.049660 408.107574,65.025024 
	C418.409698,65.015930 428.713074,65.098732 439.013306,64.954926 
	C443.468018,64.892723 447.916199,64.362717 452.817444,64.051514 
z"/>
<path fill="#FBF7F3" opacity="1.000000" stroke="none" 
	d="
M373.382202,65.018501 
	C374.153381,71.826759 375.038483,72.426926 384.474487,71.994186 
	C386.036652,73.147095 386.929718,74.091980 387.933472,75.402924 
	C388.268646,77.771019 388.493073,79.773056 388.453125,81.653641 
	C386.781097,82.556969 385.373474,83.581734 383.965820,84.606499 
	C378.207214,82.572716 372.442902,80.554794 366.692413,78.498329 
	C363.896790,77.498581 361.126892,76.426765 358.091461,75.653503 
	C352.667236,72.479156 347.496918,69.038895 342.186157,65.296715 
	C352.338898,64.999496 362.632080,65.004189 373.382202,65.018501 
z"/>
<path fill="#63B389" opacity="1.000000" stroke="none" 
	d="
M384.395325,84.714256 
	C385.373474,83.581734 386.781097,82.556969 388.788849,81.669662 
	C392.611511,81.770126 395.834076,81.733131 399.056641,81.696144 
	C400.568909,82.559280 402.081207,83.422424 403.773438,84.546585 
	C397.577240,84.812401 391.201050,84.817207 384.395325,84.714256 
z"/>
<path fill="#0CB28E" opacity="1.000000" stroke="none" 
	d="
M410.647827,142.045227 
	C408.850708,144.292847 406.741699,146.661133 404.278595,148.994583 
	C406.061646,146.695114 408.198822,144.430496 410.647827,142.045227 
z"/>
<path fill="#0CB28E" opacity="1.000000" stroke="none" 
	d="
M412.723663,140.008148 
	C412.813202,140.244522 412.642395,140.557144 412.198425,140.926575 
	C412.104614,140.683716 412.283997,140.384048 412.723663,140.008148 
z"/>
<path fill="#0CB28E" opacity="1.000000" stroke="none" 
	d="
M413.729736,138.943207 
	C413.815063,139.164398 413.644623,139.495087 413.203979,139.907959 
	C413.113861,139.677658 413.293915,139.365204 413.729736,138.943207 
z"/>
<path fill="#0CB28E" opacity="1.000000" stroke="none" 
	d="
M411.720886,140.998856 
	C411.812866,141.238922 411.642151,141.552567 411.198334,141.925049 
	C411.102905,141.680069 411.280518,141.376251 411.720886,140.998856 
z"/>
<path fill="#0CB28E" opacity="1.000000" stroke="none" 
	d="
M403.720703,148.998627 
	C403.812805,149.238831 403.642120,149.552536 403.198303,149.925049 
	C403.102753,149.679932 403.280334,149.376022 403.720703,148.998627 
z"/>
<path fill="#0CB28E" opacity="1.000000" stroke="none" 
	d="
M402.720734,149.998657 
	C402.812805,150.238831 402.642120,150.552521 402.198303,150.925018 
	C402.102783,150.679962 402.280365,150.376083 402.720734,149.998657 
z"/>
<path fill="#0CB28E" opacity="1.000000" stroke="none" 
	d="
M401.720337,151.001663 
	C401.798065,151.223755 401.609375,151.521072 401.158020,151.908112 
	C401.081573,151.690857 401.267761,151.383881 401.720337,151.001663 
z"/>
<path fill="#E4897C" opacity="1.000000" stroke="none" 
	d="
M426.279663,329.461731 
	C423.738251,329.886200 421.169281,329.895782 418.153748,329.692444 
	C416.832367,312.919128 415.943420,296.359497 415.098785,279.797607 
	C414.980438,277.476959 415.078949,275.145203 415.246643,272.269409 
	C415.558533,271.442535 415.472046,271.237000 415.156799,271.103699 
	C415.108704,269.325134 415.060638,267.546539 415.318817,265.014343 
	C415.376343,258.183105 415.127625,252.105515 414.878906,246.027939 
	C414.611053,245.222733 414.343231,244.417542 414.346161,243.010284 
	C416.199310,241.605667 417.771454,240.134140 419.365753,240.109695 
	C429.364136,239.956421 427.789673,239.201843 428.032959,248.318832 
	C428.136810,252.209961 428.629822,256.090698 428.945984,259.976166 
	C428.961426,260.431915 428.976837,260.887634 428.819763,261.772461 
	C428.454346,262.513977 428.529205,262.769135 428.871796,262.967010 
	C427.998596,284.993622 427.125366,307.020264 426.279663,329.461731 
z"/>
<path fill="#E48778" opacity="1.000000" stroke="none" 
	d="
M428.998413,259.549133 
	C428.629822,256.090698 428.136810,252.209961 428.032959,248.318832 
	C427.789673,239.201843 429.364136,239.956421 419.365753,240.109695 
	C417.771454,240.134140 416.199310,241.605667 414.368103,242.678650 
	C413.832092,241.869003 413.544952,240.788895 413.198486,239.382141 
	C418.393677,239.045242 423.648193,239.034958 429.344391,239.066650 
	C429.540985,245.779785 429.295898,252.450943 428.998413,259.549133 
z"/>
<path fill="#E48778" opacity="1.000000" stroke="none" 
	d="
M428.913666,262.732483 
	C428.529205,262.769135 428.454346,262.513977 428.779907,262.112457 
	C428.912567,262.023376 428.955536,262.497925 428.913666,262.732483 
z"/>
<path fill="#F07E53" opacity="1.000000" stroke="none" 
	d="
M414.892853,246.493576 
	C415.127625,252.105515 415.376343,258.183105 415.371399,264.571899 
	C415.047455,258.908478 414.977112,252.933838 414.892853,246.493576 
z"/>
<path fill="#F07E53" opacity="1.000000" stroke="none" 
	d="
M415.139099,271.297821 
	C415.472046,271.237000 415.558533,271.442535 415.305145,271.797607 
	C415.194031,271.875000 415.121460,271.491943 415.139099,271.297821 
z"/>
<path fill="#DC8978" opacity="1.000000" stroke="none" 
	d="
M399.073669,81.356773 
	C395.834076,81.733131 392.611511,81.770126 389.053223,81.791107 
	C388.493073,79.773056 388.268646,77.771019 388.349243,75.328598 
	C390.049927,74.583641 391.498505,73.874329 392.831512,74.048630 
	C397.237671,74.624786 399.331512,72.169235 400.833618,68.914520 
	C399.755646,67.350777 398.845306,66.030167 397.934967,64.709564 
	C400.432007,61.892483 402.929047,59.075405 405.693420,56.031925 
	C406.633881,58.608082 407.307007,61.410645 408.043884,64.619110 
	C408.106140,72.049660 405.620270,77.673508 399.073669,81.356773 
z"/>
<path fill="#223038" opacity="1.000000" stroke="none" 
	d="
M397.588684,64.790977 
	C398.845306,66.030167 399.755646,67.350777 400.833618,68.914520 
	C399.331512,72.169235 397.237671,74.624786 392.831512,74.048630 
	C391.498505,73.874329 390.049927,74.583641 388.238525,74.962540 
	C386.929718,74.091980 386.036652,73.147095 384.896362,71.961281 
	C388.846863,69.437698 393.044617,67.155045 397.588684,64.790977 
z"/>
<path fill="#EBE5D8" opacity="1.000000" stroke="none" 
	d="
M379.845123,61.650223 
	C384.651978,61.538433 389.433960,60.973961 393.847260,57.229378 
	C394.618195,57.420536 394.836334,57.685696 395.054474,57.950863 
	C388.944489,63.814159 385.463867,64.740990 379.845123,61.650223 
z"/>
<path fill="#BFC3C0" opacity="1.000000" stroke="none" 
	d="
M395.347717,57.783905 
	C394.836334,57.685696 394.618195,57.420536 394.155304,57.057343 
	C395.336426,53.475365 396.762299,49.991428 398.357635,46.099289 
	C402.008453,50.741703 398.350586,54.064590 395.347717,57.783905 
z"/>
</svg>