<svg version="1.1" id="Layer_1" xmlns="http://www.w3.org/2000/svg" xmlns:xlink="http://www.w3.org/1999/xlink" x="0px" y="0px"
	 width="100%" viewBox="0 0 497 349" enable-background="new 0 0 497 349" xml:space="preserve">
<path fill="#FCF9F7" opacity="1.000000" stroke="none" 
	d="
M1.000005,313.000000 
	C1.000000,209.050018 1.000000,105.100037 1.000000,1.075028 
	C166.666656,1.075028 332.333313,1.075028 498.000000,1.075028 
	C498.000000,34.428009 498.000000,67.745346 497.574738,101.539886 
	C489.589294,103.703094 481.975220,105.183350 474.487457,107.145638 
	C469.278656,108.510689 464.902130,108.126030 460.649811,104.405022 
	C458.652069,102.656891 455.694061,101.829697 453.035461,101.045364 
	C444.030975,98.388863 435.709808,100.437614 427.813202,105.079826 
	C424.204834,107.201080 420.762360,107.648415 416.564911,105.666885 
	C413.706299,104.317406 409.850983,104.416161 406.552948,104.807701 
	C400.837555,105.486229 395.208771,106.893822 389.493011,107.581619 
	C384.314209,83.620987 368.552856,69.249748 347.538727,60.130184 
	C337.512817,55.779202 326.185791,55.499546 315.664124,57.550224 
	C306.905640,59.257259 298.290161,63.157867 290.402924,67.518593 
	C279.692993,73.439903 272.863770,83.443169 266.756592,93.892319 
	C265.934296,93.095192 265.263519,92.521339 264.943512,91.793312 
	C256.792908,73.250267 248.878250,54.599869 240.447800,36.185486 
	C237.597427,29.959505 233.797806,24.077961 229.775696,18.513371 
	C227.471420,15.325400 223.892853,14.864715 220.933212,18.547228 
	C219.585587,20.224012 218.014893,21.734600 216.777832,23.484865 
	C211.419968,31.065498 206.637314,39.114609 200.716568,46.219231 
	C193.854568,54.453266 186.253723,62.118301 178.540283,69.582542 
	C171.175079,76.709808 162.424057,82.543694 155.766052,90.231247 
	C145.263824,102.357483 135.468246,115.190628 126.366158,128.408081 
	C117.153732,141.785736 107.998901,155.435074 100.917664,169.986725 
	C92.934830,186.391129 81.840904,198.995026 65.956184,207.467407 
	C57.111763,212.184708 49.795235,218.401245 44.150116,226.672546 
	C32.081280,244.355957 23.812353,263.977966 15.011939,283.340454 
	C10.488109,293.293701 5.679777,303.117645 1.000005,313.000000 
z"/>
<path fill="#EBE5D8" opacity="1.000000" stroke="none" 
	d="
M1.000005,313.468658 
	C5.679777,303.117645 10.488109,293.293701 15.011939,283.340454 
	C23.812353,263.977966 32.081280,244.355957 44.150116,226.672546 
	C49.795235,218.401245 57.111763,212.184708 65.956184,207.467407 
	C81.840904,198.995026 92.934830,186.391129 100.917664,169.986725 
	C107.998901,155.435074 117.153732,141.785736 126.366158,128.408081 
	C135.468246,115.190628 145.263824,102.357483 155.766052,90.231247 
	C162.424057,82.543694 171.175079,76.709808 178.540283,69.582542 
	C186.253723,62.118301 193.854568,54.453266 200.716568,46.219231 
	C206.637314,39.114609 211.419968,31.065498 216.777832,23.484865 
	C218.014893,21.734600 219.585587,20.224012 220.933212,18.547228 
	C223.892853,14.864715 227.471420,15.325400 229.775696,18.513371 
	C233.797806,24.077961 237.597427,29.959505 240.447800,36.185486 
	C248.878250,54.599869 256.792908,73.250267 264.943512,91.793312 
	C265.263519,92.521339 265.934296,93.095192 266.733276,94.257217 
	C273.892517,108.881241 281.378571,122.870865 293.704041,132.787445 
	C303.711151,140.838745 309.712006,150.617462 313.017303,162.574997 
	C314.276093,167.128815 315.508270,171.689972 316.978577,177.075577 
	C324.960663,171.769394 332.640106,167.391830 339.477722,161.955414 
	C350.897705,152.875717 363.751068,151.325592 377.562012,152.730804 
	C379.544952,152.932556 381.643036,152.002518 383.880493,151.947784 
	C386.321411,153.191864 388.608337,153.998932 390.810303,154.993973 
	C396.206207,157.432297 402.375214,158.977341 406.783142,162.631104 
	C420.044128,173.623306 432.487244,185.595520 445.510864,196.883850 
	C451.044586,201.680237 456.445282,207.487030 465.025238,205.940704 
	C469.089264,205.208267 473.121185,204.295364 477.162567,203.440201 
	C484.110474,201.970093 491.054413,200.481094 498.000000,199.000000 
	C498.000000,247.020889 498.000000,295.041779 497.531342,343.531311 
	C493.568573,343.999969 490.068115,343.862274 486.581482,344.023499 
	C470.518005,344.766357 454.137543,341.485992 438.506104,347.937469 
	C435.840973,349.037445 432.843781,349.332886 430.000000,350.000000 
	C309.979095,350.000000 189.958206,350.000000 69.192741,349.715576 
	C66.170616,349.073853 63.748817,349.096863 61.639191,348.296753 
	C49.099472,343.540924 36.060497,343.732483 22.979042,343.975464 
	C15.655069,344.111511 8.326499,343.999969 1.000000,344.000000 
	C1.000000,333.979095 1.000000,323.958221 1.000005,313.468658 
M196.925018,339.818970 
	C197.261963,339.924774 197.598907,340.030579 197.938202,340.041718 
	C197.938202,340.041718 197.867508,340.104675 198.307556,340.602600 
	C199.550598,341.005585 200.793640,341.408569 202.948563,342.026764 
	C214.277298,341.955017 225.606018,341.883301 237.655075,341.846191 
	C240.564102,340.155792 243.473129,338.465393 245.690308,337.177002 
	C249.036362,338.833984 252.044724,340.323761 255.962372,342.031799 
	C267.286072,341.956940 278.609741,341.882080 290.648193,341.839081 
	C300.571442,337.805756 304.451813,329.232849 307.572784,319.640381 
	C307.794189,319.466919 307.955811,319.249115 308.982086,319.033020 
	C324.334442,319.022919 339.686768,319.012787 355.219788,319.201202 
	C355.219788,319.201202 355.483521,319.151245 355.679352,319.904327 
	C356.637421,322.550873 357.268280,325.379211 358.617981,327.808136 
	C361.993622,333.883148 365.266266,340.222382 373.962311,342.030457 
	C385.286011,341.955597 396.609711,341.880737 408.648041,341.838226 
	C418.460968,337.813904 422.463226,329.435974 425.271179,319.622833 
	C425.271179,319.622833 425.375153,319.202667 426.255798,319.064728 
	C433.210541,319.037781 440.165894,319.059631 447.119812,318.968964 
	C453.050171,318.891663 456.091370,316.547791 458.379395,310.176056 
	C457.954071,307.039520 457.528748,303.903015 457.121277,299.900299 
	C456.742584,296.272583 456.553284,292.613098 455.950378,289.023041 
	C453.989655,277.346832 451.601624,265.808014 442.620178,256.268005 
	C437.089905,251.635574 431.916840,246.420334 424.038422,244.421265 
	C422.995209,243.657013 422.058899,242.520645 420.892395,242.185455 
	C407.686615,238.391052 394.552307,234.257080 381.178314,231.169388 
	C371.477142,228.929672 361.229645,229.183472 352.938965,222.161118 
	C349.390656,219.155670 344.980316,217.030960 340.713654,215.036819 
	C328.678802,209.412018 316.741150,203.472687 304.354492,198.729935 
	C280.493805,189.593826 255.665268,184.705276 229.883942,183.407455 
	C229.263657,182.301926 228.643372,181.196381 228.062637,179.299149 
	C226.066040,173.392426 224.070267,167.485397 222.072647,161.579025 
	C219.313721,153.421738 213.903336,148.837234 204.612518,148.291504 
	C201.624924,143.103867 202.428314,138.264221 206.544937,134.074112 
	C207.465637,133.136963 207.403183,131.233902 208.020447,129.129333 
	C209.056870,127.647392 210.500534,126.293060 211.016052,124.647888 
	C211.539886,122.976181 211.930176,120.352440 211.029480,119.294090 
	C205.683578,113.012527 197.569183,116.637939 190.988785,114.370354 
	C190.451141,114.185089 188.641830,116.653160 188.005692,118.137817 
	C187.544662,119.213829 188.047058,120.702660 187.970993,122.908371 
	C187.944565,123.403770 187.859711,123.904045 187.900589,124.393829 
	C188.408966,130.485260 186.437790,137.451965 194.085709,141.080048 
	C194.574081,141.311722 193.790543,144.943146 193.044312,146.766052 
	C192.650711,147.727585 191.058411,148.198410 189.197861,148.960724 
	C184.064819,147.039261 179.447449,148.547852 175.370422,151.568008 
	C170.105865,155.467850 165.119919,159.743790 159.291367,163.767426 
	C158.117416,164.824158 156.943451,165.880905 155.281326,166.418579 
	C150.375153,157.882385 154.296021,149.731445 157.259430,141.637466 
	C151.756104,140.786957 148.562180,143.014404 148.062042,147.819931 
	C147.482773,153.386185 147.045959,158.997635 147.063156,164.587891 
	C147.084610,171.561584 150.915161,175.000931 158.405777,175.598984 
	C160.295731,175.298340 162.185699,174.997681 164.625275,174.369995 
	C168.512878,171.947266 172.400467,169.524536 177.223999,166.518539 
	C176.792603,172.894806 176.558105,178.134827 175.969620,183.334808 
	C175.870041,184.214783 174.320450,185.477676 173.314590,185.610916 
	C169.489517,186.117569 165.583344,186.022812 161.763412,186.554626 
	C157.923218,187.089233 154.171188,188.229416 150.342255,188.878571 
	C142.782715,190.160187 135.015015,190.629181 127.672867,192.660965 
	C120.333763,194.691895 113.409439,198.221710 105.506241,200.982285 
	C102.400436,199.397919 100.098236,200.253662 97.635529,202.715424 
	C94.159119,206.190536 90.269966,209.281570 86.377396,212.305252 
	C79.363373,217.753632 72.137177,222.930267 65.160614,228.424850 
	C62.106819,230.829956 60.960400,233.909637 63.618324,237.742615 
	C61.837482,238.262604 60.082005,238.904556 58.271336,239.281143 
	C51.073856,240.778091 46.037579,245.081772 42.145054,251.830338 
	C41.458218,256.715759 40.771381,261.601196 39.786530,267.318298 
	C39.431278,270.607330 39.241341,273.924530 38.686855,277.179626 
	C37.479359,284.268280 39.512787,290.125122 44.495930,295.289124 
	C48.037868,298.959656 50.842018,303.358521 54.483574,306.911499 
	C57.586452,309.938934 61.414299,312.223358 65.263992,315.537201 
	C66.525986,319.264221 67.389954,323.190613 69.135597,326.675354 
	C72.431900,333.255585 75.817619,339.996918 84.961945,342.033203 
	C96.285202,341.956055 107.608452,341.878876 119.645966,341.832642 
	C129.455322,337.772095 133.493942,329.412781 136.733398,319.528198 
	C141.796341,319.360077 146.859283,319.191986 152.013016,319.712982 
	C151.929428,320.167999 151.845840,320.623047 151.029984,321.096771 
	C147.514359,324.493011 151.805420,325.749969 152.342148,328.404175 
	C151.813660,330.405457 151.285172,332.406769 150.147598,334.180969 
	C147.842865,334.044525 145.539581,333.868713 143.232956,333.784393 
	C141.473648,333.720062 139.710098,333.771667 137.948441,333.771667 
	C137.891983,334.333466 137.835510,334.895294 137.779053,335.457092 
	C143.226395,338.455322 148.673737,341.453522 154.830078,344.841980 
	C155.219528,341.823822 155.506775,339.597809 156.107269,336.655121 
	C156.799698,334.488556 157.492126,332.322021 158.752243,330.380280 
	C161.510818,330.854736 163.113510,330.245758 162.143219,326.332092 
	C163.163345,323.881714 164.183472,321.431335 166.106400,318.984711 
	C170.722488,318.981079 175.338593,318.977478 180.324875,319.595978 
	C180.893341,321.671509 181.461807,323.747040 181.575562,326.296173 
	C182.991547,327.588989 184.407516,328.881836 185.882370,331.002289 
	C185.270020,333.373657 184.657654,335.745026 183.424225,338.542786 
	C179.601913,339.772247 175.779602,341.001709 171.075089,342.514923 
	C172.672058,343.212280 173.362274,343.513702 174.956741,344.048340 
	C180.232941,344.083588 185.510864,344.202423 190.784042,344.092773 
	C192.033752,344.066833 193.267487,343.273956 194.656754,342.023254 
	C194.782486,340.655457 194.908218,339.287689 195.007904,337.987366 
	C195.007904,337.987366 195.076462,337.964294 195.303726,338.475647 
	C195.767914,338.777039 196.232086,339.078430 196.924744,339.145111 
	C196.924744,339.145111 196.663177,339.342285 196.925018,339.818970 
z"/>
<path fill="#FCF9F7" opacity="1.000000" stroke="none" 
	d="
M498.000000,198.531342 
	C491.054413,200.481094 484.110474,201.970093 477.162567,203.440201 
	C473.121185,204.295364 469.089264,205.208267 465.025238,205.940704 
	C456.445282,207.487030 451.044586,201.680237 445.510864,196.883850 
	C432.487244,185.595520 420.044128,173.623306 406.783142,162.631104 
	C402.375214,158.977341 396.206207,157.432297 390.810303,154.993973 
	C388.608337,153.998932 386.321411,153.191864 384.001648,151.623688 
	C389.682983,139.992783 391.830078,128.317093 391.381287,116.019394 
	C427.238129,115.392494 462.674011,117.597542 498.000000,114.000000 
	C498.000000,142.020889 498.000000,170.041794 498.000000,198.531342 
z"/>
<path fill="#EBE5D8" opacity="1.000000" stroke="none" 
	d="
M498.000000,113.539368 
	C462.674011,117.597542 427.238129,115.392494 390.919434,116.012711 
	C380.209808,116.332077 370.437866,116.722725 360.662018,116.902779 
	C358.798553,116.937103 356.919739,116.139503 355.048035,115.725739 
	C355.090546,115.206322 355.133057,114.686905 355.175568,114.167488 
	C359.947876,113.111153 364.690094,111.883209 369.499786,111.040070 
	C376.154480,109.873505 382.859924,108.996582 389.543640,107.995636 
	C395.208771,106.893822 400.837555,105.486229 406.552948,104.807701 
	C409.850983,104.416161 413.706299,104.317406 416.564911,105.666885 
	C420.762360,107.648415 424.204834,107.201080 427.813202,105.079826 
	C435.709808,100.437614 444.030975,98.388863 453.035461,101.045364 
	C455.694061,101.829697 458.652069,102.656891 460.649811,104.405022 
	C464.902130,108.126030 469.278656,108.510689 474.487457,107.145638 
	C481.975220,105.183350 489.589294,103.703094 497.574738,102.008545 
	C498.000000,105.692909 498.000000,109.385818 498.000000,113.539368 
z"/>
<path fill="#FCF9F7" opacity="1.000000" stroke="none" 
	d="
M430.468658,350.000000 
	C432.843781,349.332886 435.840973,349.037445 438.506104,347.937469 
	C454.137543,341.485992 470.518005,344.766357 486.581482,344.023499 
	C490.068115,343.862274 493.568573,343.999969 497.531342,344.000000 
	C498.000000,345.988098 498.000000,347.976196 498.000000,350.000000 
	C475.645782,350.000000 453.291565,350.000000 430.468658,350.000000 
z"/>
<path fill="#FCF9F7" opacity="1.000000" stroke="none" 
	d="
M1.000000,344.499481 
	C8.326499,343.999969 15.655069,344.111511 22.979042,343.975464 
	C36.060497,343.732483 49.099472,343.540924 61.639191,348.296753 
	C63.748817,349.096863 66.170616,349.073853 68.724083,349.715576 
	C46.333328,350.000000 23.666655,350.000000 1.000000,350.000000 
	C1.000000,348.309662 1.000000,346.654297 1.000000,344.499481 
z"/>
<path fill="#F07E53" opacity="1.000000" stroke="none" 
	d="
M389.493011,107.581619 
	C382.859924,108.996582 376.154480,109.873505 369.499786,111.040070 
	C364.690094,111.883209 359.947876,113.111153 355.175568,114.167488 
	C355.133057,114.686905 355.090546,115.206322 355.048035,115.725739 
	C356.919739,116.139503 358.798553,116.937103 360.662018,116.902779 
	C370.437866,116.722725 380.209808,116.332077 390.444977,116.021294 
	C391.830078,128.317093 389.682983,139.992783 383.808990,151.272171 
	C381.643036,152.002518 379.544952,152.932556 377.562012,152.730804 
	C363.751068,151.325592 350.897705,152.875717 339.477722,161.955414 
	C332.640106,167.391830 324.960663,171.769394 316.978577,177.075577 
	C315.508270,171.689972 314.276093,167.128815 313.017303,162.574997 
	C309.712006,150.617462 303.711151,140.838745 293.704041,132.787445 
	C281.378571,122.870865 273.892517,108.881241 267.048218,94.408653 
	C272.863770,83.443169 279.692993,73.439903 290.402924,67.518593 
	C298.290161,63.157867 306.905640,59.257259 315.664124,57.550224 
	C326.185791,55.499546 337.512817,55.779202 347.538727,60.130184 
	C368.552856,69.249748 384.314209,83.620987 389.493011,107.581619 
z"/>
<path fill="#FEBA4C" opacity="1.000000" stroke="none" 
	d="
M442.925598,256.834747 
	C451.601624,265.808014 453.989655,277.346832 455.950378,289.023041 
	C456.553284,292.613098 456.742584,296.272583 456.843323,300.328491 
	C452.396637,301.148834 448.214081,301.433441 444.063354,301.966064 
	C440.551514,302.416748 440.435608,305.324280 441.139374,307.661621 
	C441.551453,309.030060 443.590393,310.695404 445.022095,310.822449 
	C449.297485,311.201782 453.634338,310.888000 457.947205,310.844971 
	C456.091370,316.547791 453.050171,318.891663 447.119812,318.968964 
	C440.165894,319.059631 433.210541,319.037781 425.322571,319.043976 
	C406.285309,319.071869 388.181244,319.120514 369.608948,319.109802 
	C364.588318,319.084076 360.035919,319.117645 355.483521,319.151245 
	C355.483521,319.151245 355.219788,319.201202 354.830627,318.803192 
	C339.535675,318.287720 324.629974,318.160065 309.723938,318.092743 
	C309.169861,318.090240 308.613129,318.675537 308.057617,318.986908 
	C307.955811,319.249115 307.794189,319.466919 307.039185,319.687622 
	C300.609161,316.701141 299.092896,311.115692 297.340607,305.272217 
	C292.253082,288.306519 285.181152,272.244812 273.197540,258.839020 
	C261.690369,245.966217 250.488327,247.130508 241.745300,261.990936 
	C240.993011,263.269623 240.379837,264.642090 239.815262,266.017456 
	C232.723450,283.294037 232.797546,300.961823 236.510834,318.893555 
	C221.708481,318.995575 207.371231,319.051453 192.736725,318.844727 
	C191.986877,315.476868 191.534317,312.371674 191.325089,309.177551 
	C191.727524,309.021393 191.886612,308.954132 192.506180,308.960815 
	C203.285675,308.962219 213.604675,308.889679 224.281372,308.728943 
	C225.036194,305.621124 228.501312,301.983948 222.473541,300.093506 
	C211.692551,300.065125 201.370972,300.108429 190.711868,299.927551 
	C189.983505,296.840515 189.336899,293.985504 189.248840,291.113373 
	C188.961548,281.742493 188.878021,272.365356 188.811996,262.588745 
	C188.882584,260.815277 188.857269,259.443695 188.865891,257.675720 
	C193.172943,247.762894 197.446075,238.246414 202.198914,228.827332 
	C216.461929,228.983246 230.245239,229.041733 244.131073,229.253510 
	C244.494339,229.257187 244.755081,229.107605 245.269196,228.742950 
	C248.399612,226.482727 247.982269,224.041611 246.036255,221.770569 
	C239.753281,214.438309 233.355652,207.204285 227.017578,199.567047 
	C228.040359,197.761475 229.047791,196.321274 230.360641,195.032669 
	C237.088654,200.866547 243.701218,206.351303 249.876083,212.291092 
	C255.195160,217.407700 260.015411,223.042862 265.172791,228.789825 
	C266.513855,229.118546 267.738312,229.106201 269.431427,229.043701 
	C297.276459,229.030365 324.652802,229.067184 352.129181,229.256561 
	C352.488647,229.266617 352.748138,229.124084 353.111633,228.761017 
	C351.773651,227.442184 350.389587,226.256195 348.881042,225.258408 
	C312.562195,201.236298 272.246094,190.449738 228.827789,188.909561 
	C228.446136,187.839752 228.314957,186.987579 228.452591,186.021286 
	C229.167648,185.300827 229.613892,184.694504 230.060150,184.088181 
	C255.665268,184.705276 280.493805,189.593826 304.354492,198.729935 
	C316.741150,203.472687 328.678802,209.412018 340.713654,215.036819 
	C344.980316,217.030960 349.390656,219.155670 352.938965,222.161118 
	C361.229645,229.183472 371.477142,228.929672 381.178314,231.169388 
	C394.552307,234.257080 407.686615,238.391052 420.892395,242.185455 
	C422.058899,242.520645 422.995209,243.657013 424.038696,245.101379 
	C421.956177,246.383102 419.873383,246.984695 417.807220,247.581482 
	C424.118408,255.872543 433.843292,259.466003 442.925598,256.834747 
M412.151886,264.643768 
	C398.928589,264.630280 385.704895,264.560608 372.482483,264.662659 
	C370.454346,264.678253 368.432373,265.485443 365.770294,266.035156 
	C360.099731,271.381927 359.663361,273.673553 363.045715,280.256042 
	C364.777771,283.626801 366.333069,287.102509 368.277069,290.345642 
	C369.751556,292.805542 371.714264,294.972809 374.001465,297.898376 
	C375.446259,298.210510 376.889862,298.787476 378.335999,298.793854 
	C393.123199,298.858948 407.911377,298.892090 422.697571,298.751617 
	C424.510895,298.734375 426.314087,297.649780 428.791779,296.764984 
	C432.966064,292.521027 429.771027,287.664703 429.894043,283.094666 
	C430.156342,273.352173 423.865112,268.587341 415.501770,264.898010 
	C415.331573,264.922333 415.161407,264.946686 414.381042,264.720001 
	C413.950867,264.754059 413.520660,264.788116 412.151886,264.643768 
M293.931793,252.638763 
	C300.450958,254.715530 306.864044,257.899078 313.521088,258.536926 
	C319.392212,259.099487 325.691528,257.352936 331.516235,255.649643 
	C337.675751,253.848450 343.497864,250.893478 349.467377,248.442505 
	C349.286835,247.988480 349.106293,247.534470 348.925751,247.080444 
	C328.783386,246.075043 308.641052,245.069626 288.498688,244.064209 
	C288.189392,244.530258 287.880127,244.996307 287.570862,245.462341 
	C289.511963,247.681107 291.453094,249.899857 293.931793,252.638763 
M331.501038,310.975708 
	C339.825104,310.975311 348.150177,310.901306 356.472717,311.013641 
	C359.458527,311.053955 361.252441,309.538574 360.774200,306.941620 
	C360.446228,305.160583 358.489441,303.555908 356.980530,302.179565 
	C356.413696,301.662537 355.055359,302.019562 354.058472,301.966797 
	C341.540222,301.304382 329.001740,300.878754 316.517670,299.814880 
	C313.230438,299.534729 311.137329,298.795654 310.902374,303.098236 
	C310.543304,309.674255 311.135712,310.850037 316.018402,310.952667 
	C320.844269,311.054108 325.673859,310.975403 331.501038,310.975708 
z"/>
<path fill="#FEBA4C" opacity="1.000000" stroke="none" 
	d="
M106.303284,201.094482 
	C113.409439,198.221710 120.333763,194.691895 127.672867,192.660965 
	C135.015015,190.629181 142.782715,190.160187 150.342255,188.878571 
	C154.171188,188.229416 157.923218,187.089233 161.763412,186.554626 
	C165.583344,186.022812 169.489517,186.117569 173.314590,185.610916 
	C174.320450,185.477676 175.870041,184.214783 175.969620,183.334808 
	C176.558105,178.134827 176.792603,172.894806 177.223999,166.518539 
	C172.400467,169.524536 168.512878,171.947266 164.313354,174.172974 
	C162.672287,170.603226 161.343140,167.230515 160.013992,163.857788 
	C165.119919,159.743790 170.105865,155.467850 175.370422,151.568008 
	C179.447449,148.547852 184.064819,147.039261 189.570129,149.232483 
	C189.134430,151.109146 188.928970,152.101837 191.181366,153.037292 
	C197.071716,155.483704 200.880127,151.845917 205.023010,148.930847 
	C213.903336,148.837234 219.313721,153.421738 222.072647,161.579025 
	C224.070267,167.485397 226.066040,173.392426 227.652222,179.636627 
	C224.177795,181.010101 221.113800,182.046112 217.747192,182.900787 
	C215.644058,179.316376 213.843536,175.913315 212.043015,172.510239 
	C211.729706,172.630280 211.416397,172.750320 211.103088,172.870361 
	C210.772079,176.491608 210.441071,180.112854 210.101120,183.831787 
	C212.978073,183.976028 215.116013,184.083237 217.402405,184.503448 
	C218.397156,185.900574 219.243469,186.984680 220.078461,188.467194 
	C219.677689,190.324005 219.288269,191.782455 218.579346,193.068939 
	C215.721161,191.773071 213.182465,190.649170 210.162018,189.311981 
	C209.893356,194.688644 209.681320,198.931915 209.049820,203.262543 
	C198.133835,202.608719 187.637329,201.867569 177.065796,200.665619 
	C176.798874,196.636581 176.606934,193.068329 176.433502,189.843903 
	C170.507767,187.718445 169.001221,190.986694 168.173553,195.078461 
	C167.518768,198.315491 167.058212,201.592896 166.363983,204.820663 
	C164.666183,212.714569 162.882965,220.590088 161.020264,228.986282 
	C165.255554,228.986282 169.046066,228.986282 172.904633,229.355789 
	C173.038864,230.472763 173.105042,231.220230 173.100739,232.334976 
	C174.500275,238.172089 171.472244,239.612747 164.980957,239.170532 
	C167.565536,242.369385 169.199356,244.391495 170.705734,246.255890 
	C167.670395,257.269348 164.528198,268.821838 161.283707,280.345520 
	C160.374008,283.576691 159.163254,286.723053 158.096741,289.445190 
	C158.018936,281.362396 157.934998,273.742767 157.853928,265.646606 
	C157.856796,255.547256 157.856796,245.924469 157.856796,235.630447 
	C157.168091,240.995956 156.180069,245.649460 156.075073,250.322830 
	C155.957901,255.538834 156.642731,260.772858 156.891251,266.461182 
	C156.924820,275.254425 157.045624,283.585510 157.137604,292.347107 
	C156.746140,295.218811 156.383484,297.659973 155.575424,300.052917 
	C148.982559,300.385559 142.835114,300.766357 136.437836,301.162628 
	C133.724670,307.818787 134.516968,309.063293 142.031143,309.057343 
	C146.020416,309.054169 150.009674,309.022125 154.023010,309.402832 
	C153.338806,312.876312 152.630508,315.950104 151.922211,319.023865 
	C146.859283,319.191986 141.796341,319.360077 135.918274,319.756256 
	C126.157776,319.859253 123.931747,318.060211 122.132210,309.498932 
	C122.098152,309.336853 122.097305,309.167480 122.058876,309.006775 
	C118.713448,295.019226 116.582207,280.661621 109.599922,267.776886 
	C105.385040,259.998932 100.063248,253.427673 90.625961,250.894730 
	C86.964630,251.086426 83.654716,251.448166 80.255295,251.775482 
	C80.165787,251.741043 80.022850,251.868927 79.735252,251.902145 
	C79.196205,252.209488 78.944756,252.483612 78.753754,252.764954 
	C78.814186,252.772171 78.750633,252.668335 78.501205,252.750305 
	C78.039963,253.098343 77.828140,253.364426 77.763687,253.618134 
	C77.911049,253.605774 77.612526,253.605743 77.378342,253.702209 
	C76.963539,254.075790 76.782913,254.352905 76.811348,254.762741 
	C77.020409,254.895477 76.613548,254.611694 76.377747,254.717407 
	C75.971329,255.115570 75.800713,255.408020 75.709167,255.752518 
	C75.788246,255.804565 75.687462,255.644257 75.442459,255.752518 
	C75.025352,256.167175 74.853264,256.473572 74.743744,256.803223 
	C74.806320,256.826477 74.779335,256.695709 74.520157,256.811401 
	C74.098228,257.259857 73.935478,257.592560 73.566002,258.040771 
	C73.128082,258.395966 73.010056,258.682343 72.753532,259.192810 
	C72.003983,260.246857 71.506088,261.123413 70.909286,262.080994 
	C70.810379,262.161987 70.847687,262.414948 70.573044,262.600311 
	C70.171616,263.197021 70.044838,263.608337 69.834778,264.110046 
	C69.751495,264.200378 69.847504,264.426636 69.563553,264.682495 
	C62.576340,280.832611 61.657593,297.220520 65.058830,314.195740 
	C65.023346,314.411377 64.921432,314.836456 64.921432,314.836456 
	C61.414299,312.223358 57.586452,309.938934 54.483574,306.911499 
	C50.842018,303.358521 48.037868,298.959656 44.495930,295.289124 
	C39.512787,290.125122 37.479359,284.268280 38.686855,277.179626 
	C39.241341,273.924530 39.431278,270.607330 40.281918,266.949829 
	C46.095730,264.514618 45.231201,259.551270 45.967022,255.377090 
	C46.442703,252.678665 45.007458,251.411469 42.403965,251.268250 
	C46.037579,245.081772 51.073856,240.778091 58.271336,239.281143 
	C60.082005,238.904556 61.837482,238.262604 64.211227,237.433746 
	C66.401047,235.973526 68.108421,234.947388 69.577454,233.651123 
	C81.844215,222.827026 94.067139,211.953262 106.303284,201.094482 
M105.913338,228.986984 
	C122.522408,228.986984 139.131470,228.986984 155.966019,228.986984 
	C158.941177,215.865540 161.819366,203.171738 164.826981,189.907166 
	C146.380981,191.646164 128.728973,193.954529 113.278877,203.671844 
	C108.269005,206.822800 104.018234,211.644897 100.440483,216.460571 
	C97.620285,220.256577 97.839226,224.998184 102.269707,229.165222 
	C103.171700,229.131317 104.073685,229.097397 105.913338,228.986984 
M108.918602,239.192657 
	C107.658051,239.897186 106.397491,240.601715 105.136940,241.306229 
	C105.883247,242.430527 106.570992,244.472488 107.385727,244.524490 
	C111.487030,244.786224 115.674217,244.877701 119.716118,244.266953 
	C121.160164,244.048752 122.280762,241.690063 123.548996,240.308380 
	C123.255516,239.936707 122.962029,239.565048 122.668549,239.193375 
	C118.387047,239.193375 114.105545,239.193375 108.918602,239.192657 
z"/>
<path fill="#312320" opacity="1.000000" stroke="none" 
	d="
M236.975952,318.847443 
	C232.797546,300.961823 232.723450,283.294037 239.815262,266.017456 
	C240.379837,264.642090 240.993011,263.269623 241.745300,261.990936 
	C250.488327,247.130508 261.690369,245.966217 273.197540,258.839020 
	C285.181152,272.244812 292.253082,288.306519 297.340607,305.272217 
	C299.092896,311.115692 300.609161,316.701141 306.851959,319.771515 
	C304.451813,329.232849 300.571442,337.805756 289.974854,341.563263 
	C281.590454,341.191223 273.878754,340.995758 266.168488,341.041779 
	C262.461975,341.063904 258.758148,341.541931 255.053085,341.813507 
	C252.044724,340.323761 249.036362,338.833984 245.690308,337.177002 
	C243.473129,338.465393 240.564102,340.155792 236.979538,341.568054 
	C224.881790,341.207825 213.459579,341.125702 201.789368,340.765442 
	C200.316742,340.359772 199.092133,340.232208 197.867508,340.104675 
	C197.867508,340.104675 197.938202,340.041718 197.806274,339.847076 
	C197.337296,339.549042 197.000229,339.445679 196.663177,339.342285 
	C196.663177,339.342285 196.924744,339.145111 196.773224,338.959290 
	C196.106628,338.503754 195.591537,338.234009 195.076462,337.964294 
	C195.076462,337.964294 195.007904,337.987366 194.972198,337.612030 
	C194.037003,335.821777 193.137482,334.406860 192.166306,332.644653 
	C192.103195,331.590698 192.111740,330.884064 192.485291,330.157074 
	C193.420959,329.231140 193.991638,328.325562 194.562317,327.420013 
	C193.721588,326.903107 192.880844,326.386200 192.208832,325.528748 
	C192.624283,323.426697 192.871033,321.665161 193.574768,319.942932 
	C206.657974,319.988129 219.284500,320.037079 231.910080,319.948822 
	C233.601181,319.937012 235.287445,319.231628 236.975952,318.847443 
M273.006531,311.757935 
	C276.403320,303.011963 275.054779,293.987885 274.414795,285.039764 
	C274.292206,283.326172 273.047058,281.692871 272.013641,279.298370 
	C270.885376,276.007263 270.045990,272.578766 268.561340,269.457184 
	C266.323059,264.751129 263.608093,259.923798 257.578552,259.833588 
	C251.500977,259.742615 248.339233,264.424500 246.549408,269.268616 
	C244.269592,275.438843 242.317657,281.920563 241.561890,288.423431 
	C240.042297,301.498688 241.352478,314.412170 248.210220,326.041931 
	C253.344070,334.748260 261.425110,334.846680 266.524963,326.200867 
	C269.097107,321.840332 270.419495,316.742615 273.006531,311.757935 
z"/>
<path fill="#51453F" opacity="1.000000" stroke="none" 
	d="
M156.020844,300.101135 
	C156.383484,297.659973 156.746140,295.218811 157.342896,292.152405 
	C157.748215,290.987579 157.919403,290.447937 158.090591,289.908325 
	C159.163254,286.723053 160.374008,283.576691 161.283707,280.345520 
	C164.528198,268.821838 167.670395,257.269348 170.705734,246.255890 
	C169.199356,244.391495 167.565536,242.369385 164.980957,239.170532 
	C171.472244,239.612747 174.500275,238.172089 173.446411,232.260529 
	C173.772079,230.473495 173.681580,229.128189 173.625275,227.369492 
	C173.831329,225.304718 174.003174,223.653336 174.437775,222.112228 
	C175.101685,221.977417 175.502838,221.732300 175.903976,221.487198 
	C175.463486,220.923203 175.022995,220.359207 174.619492,219.381134 
	C174.829300,217.312042 175.002121,215.657059 175.460144,214.112320 
	C175.889542,212.164886 176.033752,210.107178 176.132675,207.658234 
	C176.438538,205.220108 176.789673,203.173264 177.140808,201.126404 
	C187.637329,201.867569 198.133835,202.608719 208.981812,203.633179 
	C206.795242,212.187637 204.257233,220.458786 201.719223,228.729935 
	C197.446075,238.246414 193.172943,247.762894 188.574997,257.843079 
	C181.923752,271.968628 175.581680,285.525787 174.434311,300.473114 
	C173.707687,300.912415 172.033646,301.358673 171.418198,302.419220 
	C170.280243,304.380066 169.762314,306.700806 168.821106,309.194336 
	C167.505264,312.671692 166.354416,315.826324 165.203583,318.980957 
	C164.183472,321.431335 163.163345,323.881714 161.677017,326.647400 
	C158.061295,325.001160 154.911774,323.039612 151.762253,321.078064 
	C151.845840,320.623047 151.929428,320.167999 151.967621,319.368408 
	C152.630508,315.950104 153.338806,312.876312 154.052734,309.026184 
	C154.712540,305.533569 155.366684,302.817352 156.020844,300.101135 
z"/>
<path fill="#312320" opacity="1.000000" stroke="none" 
	d="
M70.847687,262.414948 
	C70.847687,262.414948 70.810379,262.161987 71.250420,262.025146 
	C72.128700,260.930664 72.566940,259.972992 73.005188,259.015350 
	C73.010056,258.682343 73.128082,258.395966 73.832466,257.931335 
	C74.463554,257.369507 74.621445,257.032593 74.779327,256.695709 
	C74.779335,256.695709 74.806320,256.826477 75.030968,256.743835 
	C75.399567,256.322235 75.543518,255.983246 75.687469,255.644257 
	C75.687462,255.644257 75.788246,255.804565 76.004555,255.721100 
	C76.351761,255.295639 76.482651,254.953674 76.613548,254.611694 
	C76.613548,254.611694 77.020409,254.895477 77.110138,254.758224 
	C77.337425,254.282562 77.474976,253.944153 77.612526,253.605743 
	C77.612526,253.605743 77.911049,253.605774 78.059555,253.618515 
	C78.388924,253.310287 78.569778,252.989304 78.750633,252.668335 
	C78.750633,252.668335 78.814186,252.772171 79.040863,252.733154 
	C79.519302,252.419052 79.771072,252.143982 80.022842,251.868927 
	C80.022850,251.868927 80.165787,251.741043 80.749878,251.824799 
	C84.548447,251.627319 87.762909,251.346054 90.977379,251.064789 
	C100.063248,253.427673 105.385040,259.998932 109.599922,267.776886 
	C116.582207,280.661621 118.713448,295.019226 122.058876,309.006775 
	C122.097305,309.167480 122.098152,309.336853 122.132210,309.498932 
	C123.931747,318.060211 126.157776,319.859253 135.543640,319.942139 
	C133.493942,329.412781 129.455322,337.772095 118.972122,341.558655 
	C110.587486,341.189362 102.876083,340.994781 95.166145,341.041809 
	C91.460190,341.064484 87.757004,341.543365 84.052559,341.815613 
	C75.817619,339.996918 72.431900,333.255585 69.135597,326.675354 
	C67.389954,323.190613 66.525986,319.264221 65.092712,315.186829 
	C64.921432,314.836456 65.023346,314.411377 65.322372,313.913757 
	C65.719543,312.438477 65.898331,311.461212 65.903374,310.483063 
	C65.955261,300.418732 65.562340,290.328674 66.179146,280.300262 
	C66.507965,274.954071 68.568542,269.714386 69.847504,264.426636 
	C69.847504,264.426636 69.751495,264.200378 70.094254,263.914551 
	C70.573898,263.224152 70.710793,262.819550 70.847687,262.414948 
M99.792480,272.999786 
	C99.518921,272.663513 99.245361,272.327271 98.551643,271.443146 
	C98.115044,270.550537 97.716820,269.636597 97.235374,268.768860 
	C94.776466,264.337219 92.161758,259.757965 86.317673,259.826355 
	C80.491707,259.894531 77.380753,264.332611 75.643372,269.013824 
	C73.357643,275.172485 71.391624,281.623291 70.560654,288.111450 
	C68.931694,300.830261 70.317291,313.380127 76.466972,324.894684 
	C81.886177,335.041565 90.836571,335.347961 96.009804,325.229675 
	C99.042412,319.298248 100.239120,312.428192 102.929932,305.801086 
	C102.928223,304.189697 102.926506,302.578339 102.770233,300.230560 
	C102.848503,299.486572 102.926781,298.742584 103.596954,297.416656 
	C103.721695,294.001892 104.408211,290.488342 103.829674,287.197205 
	C103.098572,283.038177 101.336884,279.060364 99.779839,274.579346 
	C99.600739,274.249023 99.636322,273.943726 99.792480,272.999786 
z"/>
<path fill="#302320" opacity="1.000000" stroke="none" 
	d="
M355.581421,319.527771 
	C360.035919,319.117645 364.588318,319.084076 369.917145,319.378418 
	C388.804291,319.797363 406.914978,319.888336 425.025696,319.979309 
	C422.463226,329.435974 418.460968,337.813904 407.974426,341.562622 
	C399.589996,341.190948 391.878571,340.995728 384.168549,341.041748 
	C380.462006,341.063873 376.758118,341.541534 373.053040,341.812927 
	C365.266266,340.222382 361.993622,333.883148 358.617981,327.808136 
	C357.268280,325.379211 356.637421,322.550873 355.581421,319.527771 
z"/>
<path fill="#50443F" opacity="1.000000" stroke="none" 
	d="
M193.117783,319.903625 
	C192.871033,321.665161 192.624283,323.426697 191.758301,325.604401 
	C188.102798,325.954559 185.066544,325.888580 182.030273,325.822571 
	C181.461807,323.747040 180.893341,321.671509 180.153564,318.895386 
	C178.980652,315.086823 177.979065,311.978821 176.968384,308.503906 
	C177.619720,304.520782 178.022934,300.834381 178.987885,297.301361 
	C182.119843,285.834198 185.457596,274.423248 188.716095,262.990631 
	C188.878021,272.365356 188.961548,281.742493 189.248840,291.113373 
	C189.336899,293.985504 189.983505,296.840515 190.699387,300.130920 
	C191.024445,300.558441 191.031906,300.966034 191.008759,301.422852 
	C191.017654,304.341919 191.049698,306.804199 191.081741,309.266449 
	C191.534317,312.371674 191.986877,315.476868 192.747131,319.044861 
	C193.054794,319.507660 193.117783,319.903625 193.117783,319.903625 
z"/>
<path fill="#F5C99A" opacity="1.000000" stroke="none" 
	d="
M204.817764,148.611176 
	C200.880127,151.845917 197.071716,155.483704 191.181366,153.037292 
	C188.928970,152.101837 189.134430,151.109146 189.974884,149.197510 
	C191.058411,148.198410 192.650711,147.727585 193.044312,146.766052 
	C193.790543,144.943146 194.574081,141.311722 194.085709,141.080048 
	C186.437790,137.451965 188.408966,130.485260 187.900589,124.393829 
	C187.859711,123.904045 187.944565,123.403770 188.500488,122.494522 
	C192.650726,122.080681 196.271484,122.080681 200.793442,122.080681 
	C201.182526,124.810867 201.629852,127.949707 202.041916,130.841171 
	C203.558044,130.560257 205.675705,130.167892 207.793365,129.775528 
	C207.403183,131.233902 207.465637,133.136963 206.544937,134.074112 
	C202.428314,138.264221 201.624924,143.103867 204.817764,148.611176 
z"/>
<path fill="#FCF7F0" opacity="1.000000" stroke="none" 
	d="
M105.904762,201.038391 
	C94.067139,211.953262 81.844215,222.827026 69.577454,233.651123 
	C68.108421,234.947388 66.401047,235.973526 64.459854,237.197083 
	C60.960400,233.909637 62.106819,230.829956 65.160614,228.424850 
	C72.137177,222.930267 79.363373,217.753632 86.377396,212.305252 
	C90.269966,209.281570 94.159119,206.190536 97.635529,202.715424 
	C100.098236,200.253662 102.400436,199.397919 105.904762,201.038391 
z"/>
<path fill="#F9CB9B" opacity="1.000000" stroke="none" 
	d="
M157.917130,175.019089 
	C150.915161,175.000931 147.084610,171.561584 147.063156,164.587891 
	C147.045959,158.997635 147.482773,153.386185 148.062042,147.819931 
	C148.562180,143.014404 151.756104,140.786957 157.259430,141.637466 
	C154.296021,149.731445 150.375153,157.882385 155.642120,167.044952 
	C156.640991,170.120575 157.279068,172.569839 157.917130,175.019089 
z"/>
<path fill="#342623" opacity="1.000000" stroke="none" 
	d="
M207.906906,129.452423 
	C205.675705,130.167892 203.558044,130.560257 202.041916,130.841171 
	C201.629852,127.949707 201.182526,124.810867 200.793442,122.080681 
	C196.271484,122.080681 192.650726,122.080681 188.574905,122.044037 
	C188.047058,120.702660 187.544662,119.213829 188.005692,118.137817 
	C188.641830,116.653160 190.451141,114.185089 190.988785,114.370354 
	C197.569183,116.637939 205.683578,113.012527 211.029480,119.294090 
	C211.930176,120.352440 211.539886,122.976181 211.016052,124.647888 
	C210.500534,126.293060 209.056870,127.647392 207.906906,129.452423 
z"/>
<path fill="#342621" opacity="1.000000" stroke="none" 
	d="
M458.163300,310.510498 
	C453.634338,310.888000 449.297485,311.201782 445.022095,310.822449 
	C443.590393,310.695404 441.551453,309.030060 441.139374,307.661621 
	C440.435608,305.324280 440.551514,302.416748 444.063354,301.966064 
	C448.214081,301.433441 452.396637,301.148834 456.834412,300.761597 
	C457.528748,303.903015 457.954071,307.039520 458.163300,310.510498 
z"/>
<path fill="#FCF7F2" opacity="1.000000" stroke="none" 
	d="
M442.772888,256.551392 
	C433.843292,259.466003 424.118408,255.872543 417.807220,247.581482 
	C419.873383,246.984695 421.956177,246.383102 424.203369,245.431763 
	C431.916840,246.420334 437.089905,251.635574 442.772888,256.551392 
z"/>
<path fill="#FBB94A" opacity="1.000000" stroke="none" 
	d="
M176.977478,308.870819 
	C177.979065,311.978821 178.980652,315.086823 179.968460,318.584351 
	C175.338593,318.977478 170.722488,318.981079 165.654999,318.982849 
	C166.354416,315.826324 167.505264,312.671692 169.262085,309.253479 
	C172.237869,308.950226 174.607681,308.910522 176.977478,308.870819 
z"/>
<path fill="#362824" opacity="1.000000" stroke="none" 
	d="
M155.794006,337.371796 
	C155.506775,339.597809 155.219528,341.823822 154.830078,344.841980 
	C148.673737,341.453522 143.226395,338.455322 137.779053,335.457092 
	C137.835510,334.895294 137.891983,334.333466 137.948441,333.771667 
	C139.710098,333.771667 141.473648,333.720062 143.232956,333.784393 
	C145.539581,333.868713 147.842865,334.044525 150.671021,334.541656 
	C152.727646,335.725494 154.260834,336.548645 155.794006,337.371796 
z"/>
<path fill="#362824" opacity="1.000000" stroke="none" 
	d="
M192.237976,332.991943 
	C193.137482,334.406860 194.037003,335.821777 194.985229,337.578308 
	C194.908218,339.287689 194.782486,340.655457 194.070831,342.463745 
	C187.007431,343.207855 180.529953,343.511475 174.052490,343.815094 
	C173.362274,343.513702 172.672058,343.212280 171.075089,342.514923 
	C175.779602,341.001709 179.601913,339.772247 184.120514,338.403503 
	C193.202026,339.473267 193.717972,339.106720 192.237976,332.991943 
z"/>
<path fill="#382922" opacity="1.000000" stroke="none" 
	d="
M42.274509,251.549286 
	C45.007458,251.411469 46.442703,252.678665 45.967022,255.377090 
	C45.231201,259.551270 46.095730,264.514618 40.430923,266.533997 
	C40.771381,261.601196 41.458218,256.715759 42.274509,251.549286 
z"/>
<path fill="#4C4340" opacity="1.000000" stroke="none" 
	d="
M218.049805,183.082138 
	C221.113800,182.046112 224.177795,181.010101 227.632446,180.032471 
	C228.643372,181.196381 229.263657,182.301926 229.972046,183.747818 
	C229.613892,184.694504 229.167648,185.300827 228.053513,185.949722 
	C224.953674,186.684464 222.521744,187.376633 220.089798,188.068802 
	C219.243469,186.984680 218.397156,185.900574 217.681030,184.281570 
	C217.890732,183.525177 217.970261,183.303650 218.049805,183.082138 
z"/>
<path fill="#4F4440" opacity="1.000000" stroke="none" 
	d="
M158.161453,175.309036 
	C157.279068,172.569839 156.640991,170.120575 155.886215,167.304474 
	C156.943451,165.880905 158.117416,164.824158 159.652679,163.812607 
	C161.343140,167.230515 162.672287,170.603226 164.038544,174.336487 
	C162.185699,174.997681 160.295731,175.298340 158.161453,175.309036 
z"/>
<path fill="#E27F6F" opacity="1.000000" stroke="none" 
	d="
M192.166321,332.644653 
	C193.717972,339.106720 193.202026,339.473267 184.431046,338.190308 
	C184.657654,335.745026 185.270020,333.373657 186.305161,330.545105 
	C188.525391,330.117767 190.322845,330.147583 192.120285,330.177429 
	C192.111740,330.884064 192.103195,331.590698 192.166321,332.644653 
z"/>
<path fill="#FABA47" opacity="1.000000" stroke="none" 
	d="
M151.396118,321.087402 
	C154.911774,323.039612 158.061295,325.001160 161.561615,326.985718 
	C163.113510,330.245758 161.510818,330.854736 158.142059,330.103363 
	C155.984695,329.179474 154.437500,328.532501 152.890320,327.885498 
	C151.805420,325.749969 147.514359,324.493011 151.396118,321.087402 
z"/>
<path fill="#00001C" opacity="1.000000" stroke="none" 
	d="
M425.148438,319.801086 
	C406.914978,319.888336 388.804291,319.797363 370.385376,319.437775 
	C388.181244,319.120514 406.285309,319.071869 424.882263,319.112946 
	C425.375153,319.202667 425.271179,319.622833 425.148438,319.801086 
z"/>
<path fill="#F4B649" opacity="1.000000" stroke="none" 
	d="
M192.485291,330.157074 
	C190.322845,330.147583 188.525391,330.117767 186.275726,330.131287 
	C184.407516,328.881836 182.991547,327.588989 181.802917,326.059387 
	C185.066544,325.888580 188.102798,325.954559 191.589600,325.944916 
	C192.880844,326.386200 193.721588,326.903107 194.562317,327.420013 
	C193.991638,328.325562 193.420959,329.231140 192.485291,330.157074 
z"/>
<path fill="#FC887A" opacity="1.000000" stroke="none" 
	d="
M152.616241,328.144836 
	C154.437500,328.532501 155.984695,329.179474 157.858215,329.990967 
	C157.492126,332.322021 156.799698,334.488556 155.950653,337.013458 
	C154.260834,336.548645 152.727646,335.725494 150.975571,334.655212 
	C151.285172,332.406769 151.813660,330.405457 152.616241,328.144836 
z"/>
<path fill="#FFB317" opacity="1.000000" stroke="none" 
	d="
M308.519836,319.009949 
	C308.613129,318.675537 309.169861,318.090240 309.723938,318.092743 
	C324.629974,318.160065 339.535675,318.287720 354.740295,318.703918 
	C339.686768,319.012787 324.334442,319.022919 308.519836,319.009949 
z"/>
<path fill="#1E0000" opacity="1.000000" stroke="none" 
	d="
M255.507721,341.922668 
	C258.758148,341.541931 262.461975,341.063904 266.168488,341.041779 
	C273.878754,340.995758 281.590454,341.191223 289.617493,341.547333 
	C278.609741,341.882080 267.286072,341.956940 255.507721,341.922668 
z"/>
<path fill="#1E0000" opacity="1.000000" stroke="none" 
	d="
M373.507690,341.921692 
	C376.758118,341.541534 380.462006,341.063873 384.168549,341.041748 
	C391.878571,340.995728 399.589996,341.190948 407.617126,341.546448 
	C396.609711,341.880737 385.286011,341.955597 373.507690,341.921692 
z"/>
<path fill="#1E0000" opacity="1.000000" stroke="none" 
	d="
M202.037369,341.043610 
	C213.459579,341.125702 224.881790,341.207825 236.619385,341.550720 
	C225.606018,341.883301 214.277298,341.955017 202.494781,341.727173 
	C202.041016,341.427582 202.037369,341.043610 202.037369,341.043610 
z"/>
<path fill="#1E0000" opacity="1.000000" stroke="none" 
	d="
M84.507248,341.924438 
	C87.757004,341.543365 91.460190,341.064484 95.166145,341.041809 
	C102.876083,340.994781 110.587486,341.189362 118.614998,341.543182 
	C107.608452,341.878876 96.285202,341.956055 84.507248,341.924438 
z"/>
<path fill="#220908" opacity="1.000000" stroke="none" 
	d="
M174.504608,343.931702 
	C180.529953,343.511475 187.007431,343.207855 193.996735,342.869049 
	C193.267487,343.273956 192.033752,344.066833 190.784042,344.092773 
	C185.510864,344.202423 180.232941,344.083588 174.504608,343.931702 
z"/>
<path fill="#362824" opacity="1.000000" stroke="none" 
	d="
M201.789368,340.765442 
	C202.037369,341.043610 202.041016,341.427582 202.038849,341.619568 
	C200.793640,341.408569 199.550598,341.005585 198.087524,340.353638 
	C199.092133,340.232208 200.316742,340.359772 201.789368,340.765442 
z"/>
<path fill="#362824" opacity="1.000000" stroke="none" 
	d="
M195.190094,338.219971 
	C195.591537,338.234009 196.106628,338.503754 196.658981,339.076660 
	C196.232086,339.078430 195.767914,338.777039 195.190094,338.219971 
z"/>
<path fill="#362824" opacity="1.000000" stroke="none" 
	d="
M196.794098,339.580627 
	C197.000229,339.445679 197.337296,339.549042 197.805099,339.894409 
	C197.598907,340.030579 197.261963,339.924774 196.794098,339.580627 
z"/>
<path fill="#FCF9F6" opacity="1.000000" stroke="none" 
	d="
M229.078278,189.127213 
	C272.246094,190.449738 312.562195,201.236298 348.881042,225.258408 
	C350.389587,226.256195 351.773651,227.442184 352.863159,228.760773 
	C352.510620,228.981049 352.029175,229.103989 352.029175,229.103989 
	C324.652802,229.067184 297.276459,229.030365 269.044189,228.964249 
	C267.144257,228.772888 266.100220,228.610840 265.056213,228.448761 
	C260.015411,223.042862 255.195160,217.407700 249.876083,212.291092 
	C243.701218,206.351303 237.088654,200.866547 230.174408,194.707977 
	C229.481247,192.530182 229.279755,190.828690 229.078278,189.127213 
z"/>
<path fill="#302320" opacity="1.000000" stroke="none" 
	d="
M415.975555,265.101746 
	C423.865112,268.587341 430.156342,273.352173 429.894043,283.094666 
	C429.771027,287.664703 432.966064,292.521027 427.979980,296.909912 
	C409.265320,297.126678 391.362518,297.198486 373.459686,297.270294 
	C371.714264,294.972809 369.751556,292.805542 368.277069,290.345642 
	C366.333069,287.102509 364.777771,283.626801 363.045715,280.256042 
	C359.663361,273.673553 360.099731,271.381927 366.601501,266.002808 
	C380.968567,265.979889 394.504639,266.030396 408.039917,265.946686 
	C409.725708,265.936279 411.407074,265.214386 413.090485,264.822174 
	C413.520660,264.788116 413.950867,264.754059 414.764313,265.014465 
	C415.423553,265.239899 415.699554,265.170807 415.975555,265.101746 
z"/>
<path fill="#FCF8F6" opacity="1.000000" stroke="none" 
	d="
M202.198914,228.827332 
	C204.257233,220.458786 206.795242,212.187637 209.401276,203.545837 
	C209.681320,198.931915 209.893356,194.688644 210.162018,189.311981 
	C213.182465,190.649170 215.721161,191.773071 218.766708,193.397980 
	C219.112015,202.526581 219.723343,211.287476 213.944107,218.757935 
	C212.581879,220.518784 211.782745,222.715256 210.526840,225.084351 
	C212.720932,226.183502 214.421371,227.035355 216.167572,227.910126 
	C223.066650,219.510910 223.794357,209.241119 227.002213,199.932404 
	C233.355652,207.204285 239.753281,214.438309 246.036255,221.770569 
	C247.982269,224.041611 248.399612,226.482727 245.018219,228.749908 
	C244.352112,229.014709 244.190338,229.057465 244.028564,229.100235 
	C230.245239,229.041733 216.461929,228.983246 202.198914,228.827332 
z"/>
<path fill="#FCF7F2" opacity="1.000000" stroke="none" 
	d="
M293.663025,252.378693 
	C291.453094,249.899857 289.511963,247.681107 287.570862,245.462341 
	C287.880127,244.996307 288.189392,244.530258 288.498688,244.064209 
	C308.641052,245.069626 328.783386,246.075043 348.925751,247.080444 
	C349.106293,247.534470 349.286835,247.988480 349.467377,248.442505 
	C343.497864,250.893478 337.675751,253.848450 331.516235,255.649643 
	C325.691528,257.352936 319.392212,259.099487 313.521088,258.536926 
	C306.864044,257.899078 300.450958,254.715530 293.663025,252.378693 
z"/>
<path fill="#312421" opacity="1.000000" stroke="none" 
	d="
M331.001434,310.975708 
	C325.673859,310.975403 320.844269,311.054108 316.018402,310.952667 
	C311.135712,310.850037 310.543304,309.674255 310.902374,303.098236 
	C311.137329,298.795654 313.230438,299.534729 316.517670,299.814880 
	C329.001740,300.878754 341.540222,301.304382 354.058472,301.966797 
	C355.055359,302.019562 356.413696,301.662537 356.980530,302.179565 
	C358.489441,303.555908 360.446228,305.160583 360.774200,306.941620 
	C361.252441,309.538574 359.458527,311.053955 356.472717,311.013641 
	C348.150177,310.901306 339.825104,310.975311 331.001434,310.975708 
z"/>
<path fill="#F9CC9E" opacity="1.000000" stroke="none" 
	d="
M227.017578,199.567047 
	C223.794357,209.241119 223.066650,219.510910 216.167572,227.910126 
	C214.421371,227.035355 212.720932,226.183502 210.526840,225.084351 
	C211.782745,222.715256 212.581879,220.518784 213.944107,218.757935 
	C219.723343,211.287476 219.112015,202.526581 219.086212,193.569946 
	C219.288269,191.782455 219.677689,190.324005 220.078461,188.467194 
	C222.521744,187.376633 224.953674,186.684464 227.784698,186.063858 
	C228.314957,186.987579 228.446136,187.839752 228.827789,188.909561 
	C229.279755,190.828690 229.481247,192.530182 229.868988,194.556366 
	C229.047791,196.321274 228.040359,197.761475 227.017578,199.567047 
z"/>
<path fill="#312420" opacity="1.000000" stroke="none" 
	d="
M191.325089,309.177551 
	C191.049698,306.804199 191.017654,304.341919 191.473953,301.439819 
	C198.072464,301.000763 204.184921,301.104340 210.291992,300.967010 
	C214.509521,300.872162 218.719574,300.444214 222.932968,300.165161 
	C228.501312,301.983948 225.036194,305.621124 223.971680,308.462402 
	C216.247849,308.188965 209.190536,307.987732 202.135330,308.044983 
	C198.770065,308.072266 195.408768,308.590820 192.045685,308.886871 
	C191.886612,308.954132 191.727524,309.021393 191.325089,309.177551 
z"/>
<path fill="#2E201F" opacity="1.000000" stroke="none" 
	d="
M176.968384,308.503906 
	C174.607681,308.910522 172.237869,308.950226 169.427094,308.930786 
	C169.762314,306.700806 170.280243,304.380066 171.418198,302.419220 
	C172.033646,301.358673 173.707687,300.912415 174.434311,300.473114 
	C175.581680,285.525787 181.923752,271.968628 188.541077,258.239441 
	C188.857269,259.443695 188.882584,260.815277 188.811996,262.588745 
	C185.457596,274.423248 182.119843,285.834198 178.987885,297.301361 
	C178.022934,300.834381 177.619720,304.520782 176.968384,308.503906 
z"/>
<path fill="#493527" opacity="1.000000" stroke="none" 
	d="
M373.730591,297.584351 
	C391.362518,297.198486 409.265320,297.126678 427.645081,297.057312 
	C426.314087,297.649780 424.510895,298.734375 422.697571,298.751617 
	C407.911377,298.892090 393.123199,298.858948 378.335999,298.793854 
	C376.889862,298.787476 375.446259,298.210510 373.730591,297.584351 
z"/>
<path fill="#1A131E" opacity="1.000000" stroke="none" 
	d="
M412.621185,264.732971 
	C411.407074,265.214386 409.725708,265.936279 408.039917,265.946686 
	C394.504639,266.030396 380.968567,265.979889 366.920105,265.948486 
	C368.432373,265.485443 370.454346,264.678253 372.482483,264.662659 
	C385.704895,264.560608 398.928589,264.630280 412.621185,264.732971 
z"/>
<path fill="#0A071D" opacity="1.000000" stroke="none" 
	d="
M193.574768,319.942932 
	C193.117783,319.903625 193.054794,319.507660 193.044388,319.307495 
	C207.371231,319.051453 221.708481,318.995575 236.510834,318.893555 
	C235.287445,319.231628 233.601181,319.937012 231.910080,319.948822 
	C219.284500,320.037079 206.657974,319.988129 193.574768,319.942932 
z"/>
<path fill="#0A071D" opacity="1.000000" stroke="none" 
	d="
M192.506180,308.960815 
	C195.408768,308.590820 198.770065,308.072266 202.135330,308.044983 
	C209.190536,307.987732 216.247849,308.188965 223.613983,308.550598 
	C213.604675,308.889679 203.285675,308.962219 192.506180,308.960815 
z"/>
<path fill="#00001C" opacity="1.000000" stroke="none" 
	d="
M222.473541,300.093506 
	C218.719574,300.444214 214.509521,300.872162 210.291992,300.967010 
	C204.184921,301.104340 198.072464,301.000763 191.497101,300.982971 
	C191.031906,300.966034 191.024445,300.558441 191.036926,300.355072 
	C201.370972,300.108429 211.692551,300.065125 222.473541,300.093506 
z"/>
<path fill="#FFB738" opacity="1.000000" stroke="none" 
	d="
M265.172791,228.789825 
	C266.100220,228.610840 267.144257,228.772888 268.575500,229.014404 
	C267.738312,229.106201 266.513855,229.118546 265.172791,228.789825 
z"/>
<path fill="#FFB738" opacity="1.000000" stroke="none" 
	d="
M352.129181,229.256561 
	C352.029175,229.103989 352.510620,228.981049 352.759094,228.981293 
	C352.748138,229.124084 352.488647,229.266617 352.129181,229.256561 
z"/>
<path fill="#FFB738" opacity="1.000000" stroke="none" 
	d="
M244.131073,229.253510 
	C244.190338,229.057465 244.352112,229.014709 244.764847,228.964996 
	C244.755081,229.107605 244.494339,229.257187 244.131073,229.253510 
z"/>
<path fill="#1A131E" opacity="1.000000" stroke="none" 
	d="
M415.738647,264.999878 
	C415.699554,265.170807 415.423553,265.239899 415.069397,265.139984 
	C415.161407,264.946686 415.331573,264.922333 415.738647,264.999878 
z"/>
<path fill="#FCF9F6" opacity="1.000000" stroke="none" 
	d="
M102.065079,228.529633 
	C97.839226,224.998184 97.620285,220.256577 100.440483,216.460571 
	C104.018234,211.644897 108.269005,206.822800 113.278877,203.671844 
	C128.728973,193.954529 146.380981,191.646164 164.826981,189.907166 
	C161.819366,203.171738 158.941177,215.865540 155.966019,228.986984 
	C139.131470,228.986984 122.522408,228.986984 105.087265,228.929138 
	C103.529152,228.757385 102.797119,228.643509 102.065079,228.529633 
z"/>
<path fill="#FBF7F2" opacity="1.000000" stroke="none" 
	d="
M175.174957,214.002060 
	C175.002121,215.657059 174.829300,217.312042 174.407257,219.594727 
	C174.163696,220.815598 174.169342,221.408768 174.175003,222.001938 
	C174.003174,223.653336 173.831329,225.304718 173.431274,227.517868 
	C173.062302,228.374329 172.940140,228.676544 172.836578,228.986282 
	C169.046066,228.986282 165.255554,228.986282 161.020264,228.986282 
	C162.882965,220.590088 164.666183,212.714569 166.363983,204.820663 
	C167.058212,201.592896 167.518768,198.315491 168.173553,195.078461 
	C169.001221,190.986694 170.507767,187.718445 176.433502,189.843903 
	C176.606934,193.068329 176.798874,196.636581 177.065796,200.665619 
	C176.789673,203.173264 176.438538,205.220108 176.032990,208.030731 
	C175.710709,210.530334 175.442825,212.266205 175.174957,214.002060 
z"/>
<path fill="#312320" opacity="1.000000" stroke="none" 
	d="
M155.575424,300.052917 
	C155.366684,302.817352 154.712540,305.533569 154.028656,308.626465 
	C150.009674,309.022125 146.020416,309.054169 142.031143,309.057343 
	C134.516968,309.063293 133.724670,307.818787 136.437836,301.162628 
	C142.835114,300.766357 148.982559,300.385559 155.575424,300.052917 
z"/>
<path fill="#412F25" opacity="1.000000" stroke="none" 
	d="
M109.371323,239.193024 
	C114.105545,239.193375 118.387047,239.193375 122.668549,239.193375 
	C122.962029,239.565048 123.255516,239.936707 123.548996,240.308380 
	C122.280762,241.690063 121.160164,244.048752 119.716118,244.266953 
	C115.674217,244.877701 111.487030,244.786224 107.385727,244.524490 
	C106.570992,244.472488 105.883247,242.430527 105.136940,241.306244 
	C106.397491,240.601715 107.658051,239.897186 109.371323,239.193024 
z"/>
<path fill="#312422" opacity="1.000000" stroke="none" 
	d="
M69.563553,264.682495 
	C68.568542,269.714386 66.507965,274.954071 66.179146,280.300262 
	C65.562340,290.328674 65.955261,300.418732 65.903374,310.483063 
	C65.898331,311.461212 65.719543,312.438477 65.357864,313.698120 
	C61.657593,297.220520 62.576340,280.832611 69.563553,264.682495 
z"/>
<path fill="#EBE5D6" opacity="1.000000" stroke="none" 
	d="
M217.747192,182.900787 
	C217.970261,183.303650 217.890732,183.525177 217.532578,183.968567 
	C215.116013,184.083237 212.978073,183.976028 210.101120,183.831787 
	C210.441071,180.112854 210.772079,176.491608 211.103088,172.870361 
	C211.416397,172.750320 211.729706,172.630280 212.043015,172.510239 
	C213.843536,175.913315 215.644058,179.316376 217.747192,182.900787 
z"/>
<path fill="#8A6534" opacity="1.000000" stroke="none" 
	d="
M156.978485,265.999054 
	C156.642731,260.772858 155.957901,255.538834 156.075073,250.322830 
	C156.180069,245.649460 157.168091,240.995956 157.856796,235.630447 
	C157.856796,245.924469 157.856796,255.547256 157.633057,265.634827 
	C157.409302,266.099640 156.978485,265.999054 156.978485,265.999054 
z"/>
<path fill="#06041D" opacity="1.000000" stroke="none" 
	d="
M156.891251,266.461182 
	C156.978485,265.999054 157.409302,266.099640 157.630188,266.111389 
	C157.934998,273.742767 158.018936,281.362396 158.096741,289.445190 
	C157.919403,290.447937 157.748215,290.987579 157.371735,291.721893 
	C157.045624,283.585510 156.924820,275.254425 156.891251,266.461182 
z"/>
<path fill="#312422" opacity="1.000000" stroke="none" 
	d="
M90.625961,250.894745 
	C87.762909,251.346054 84.548447,251.627319 80.839386,251.859238 
	C83.654716,251.448166 86.964630,251.086426 90.625961,250.894745 
z"/>
<path fill="#403432" opacity="1.000000" stroke="none" 
	d="
M172.904633,229.355789 
	C172.940140,228.676544 173.062302,228.374329 173.397079,227.931244 
	C173.681580,229.128189 173.772079,230.473495 173.516907,231.893250 
	C173.105042,231.220230 173.038864,230.472763 172.904633,229.355789 
z"/>
<path fill="#312422" opacity="1.000000" stroke="none" 
	d="
M72.753532,259.192810 
	C72.566940,259.972992 72.128700,260.930664 71.349335,261.944153 
	C71.506088,261.123413 72.003983,260.246857 72.753532,259.192810 
z"/>
<path fill="#FFB738" opacity="1.000000" stroke="none" 
	d="
M102.167389,228.847427 
	C102.797119,228.643509 103.529152,228.757385 104.618439,228.967377 
	C104.073685,229.097397 103.171700,229.131317 102.167389,228.847427 
z"/>
<path fill="#312422" opacity="1.000000" stroke="none" 
	d="
M79.735245,251.902130 
	C79.771072,252.143982 79.519302,252.419052 78.980423,252.725937 
	C78.944756,252.483612 79.196205,252.209488 79.735245,251.902130 
z"/>
<path fill="#312422" opacity="1.000000" stroke="none" 
	d="
M78.501205,252.750305 
	C78.569778,252.989304 78.388924,253.310287 77.912193,253.630890 
	C77.828140,253.364426 78.039963,253.098343 78.501205,252.750305 
z"/>
<path fill="#312422" opacity="1.000000" stroke="none" 
	d="
M77.378342,253.702209 
	C77.474976,253.944153 77.337425,254.282562 76.901077,254.625488 
	C76.782913,254.352905 76.963539,254.075790 77.378342,253.702209 
z"/>
<path fill="#312422" opacity="1.000000" stroke="none" 
	d="
M76.377747,254.717407 
	C76.482651,254.953674 76.351761,255.295639 75.925476,255.669037 
	C75.800713,255.408020 75.971329,255.115570 76.377747,254.717407 
z"/>
<path fill="#312422" opacity="1.000000" stroke="none" 
	d="
M75.442459,255.752518 
	C75.543518,255.983246 75.399567,256.322235 74.968399,256.720581 
	C74.853264,256.473572 75.025352,256.167175 75.442459,255.752518 
z"/>
<path fill="#312422" opacity="1.000000" stroke="none" 
	d="
M74.520149,256.811401 
	C74.621445,257.032593 74.463554,257.369507 74.039200,257.815857 
	C73.935478,257.592560 74.098228,257.259857 74.520149,256.811401 
z"/>
<path fill="#312422" opacity="1.000000" stroke="none" 
	d="
M70.573044,262.600311 
	C70.710793,262.819550 70.573898,263.224152 70.177536,263.824219 
	C70.044838,263.608337 70.171616,263.197021 70.573044,262.600311 
z"/>
<path fill="#FCB94C" opacity="1.000000" stroke="none" 
	d="
M272.307007,311.978210 
	C270.419495,316.742615 269.097107,321.840332 266.524963,326.200867 
	C261.425110,334.846680 253.344070,334.748260 248.210220,326.041931 
	C241.352478,314.412170 240.042297,301.498688 241.561890,288.423431 
	C242.317657,281.920563 244.269592,275.438843 246.549408,269.268616 
	C248.339233,264.424500 251.500977,259.742615 257.578552,259.833588 
	C263.608093,259.923798 266.323059,264.751129 268.561340,269.457184 
	C270.045990,272.578766 270.885376,276.007263 272.196045,280.061584 
	C274.569580,291.214355 274.145081,301.597900 272.307007,311.978210 
z"/>
<path fill="#221920" opacity="1.000000" stroke="none" 
	d="
M272.656738,311.868073 
	C274.145081,301.597900 274.569580,291.214355 272.349121,280.423676 
	C273.047058,281.692871 274.292206,283.326172 274.414795,285.039764 
	C275.054779,293.987885 276.403320,303.011963 272.656738,311.868073 
z"/>
<path fill="#403432" opacity="1.000000" stroke="none" 
	d="
M175.460144,214.112320 
	C175.442825,212.266205 175.710709,210.530334 176.078278,208.421982 
	C176.033752,210.107178 175.889542,212.164886 175.460144,214.112320 
z"/>
<path fill="#403432" opacity="1.000000" stroke="none" 
	d="
M174.437775,222.112228 
	C174.169342,221.408768 174.163696,220.815598 174.370270,220.008820 
	C175.022995,220.359207 175.463486,220.923203 175.903976,221.487198 
	C175.502838,221.732300 175.101685,221.977417 174.437775,222.112228 
z"/>
<path fill="#FDB94C" opacity="1.000000" stroke="none" 
	d="
M102.261681,305.980347 
	C100.239120,312.428192 99.042412,319.298248 96.009804,325.229675 
	C90.836571,335.347961 81.886177,335.041565 76.466972,324.894684 
	C70.317291,313.380127 68.931694,300.830261 70.560654,288.111450 
	C71.391624,281.623291 73.357643,275.172485 75.643372,269.013824 
	C77.380753,264.332611 80.491707,259.894531 86.317673,259.826355 
	C92.161758,259.757965 94.776466,264.337219 97.235374,268.768860 
	C97.716820,269.636597 98.115044,270.550537 98.779396,272.061401 
	C99.300301,273.007599 99.593452,273.335510 99.886604,273.663452 
	C99.636322,273.943726 99.600739,274.249023 99.909393,275.192444 
	C101.027641,283.203217 102.016350,290.600891 103.005051,297.998596 
	C102.926781,298.742584 102.848503,299.486572 102.716095,300.933777 
	C102.528526,303.084778 102.395103,304.532562 102.261681,305.980347 
z"/>
<path fill="#221920" opacity="1.000000" stroke="none" 
	d="
M103.301003,297.707642 
	C102.016350,290.600891 101.027641,283.203217 100.029343,275.404938 
	C101.336884,279.060364 103.098572,283.038177 103.829674,287.197205 
	C104.408211,290.488342 103.721695,294.001892 103.301003,297.707642 
z"/>
<path fill="#221920" opacity="1.000000" stroke="none" 
	d="
M102.595810,305.890717 
	C102.395103,304.532562 102.528526,303.084778 102.793365,301.301971 
	C102.926506,302.578339 102.928223,304.189697 102.595810,305.890717 
z"/>
<path fill="#221920" opacity="1.000000" stroke="none" 
	d="
M99.839539,273.331604 
	C99.593452,273.335510 99.300301,273.007599 98.989471,272.335327 
	C99.245361,272.327271 99.518921,272.663513 99.839539,273.331604 
z"/>
</svg>